<svg width="1920" height="522" viewBox="0 0 1920 522" fill="none" xmlns="http://www.w3.org/2000/svg">
<path d="M0 0H1921V522H0V0Z" fill="#4D7346"/>
<path d="M841.17 157.431C821.168 176.379 768.593 183.843 764.402 148.627C764.402 144.417 763.449 125.278 791.642 105.374C776.212 108.819 767.45 98.4836 772.212 81.45C780.784 56.9523 839.646 24.0334 846.504 44.3206C851.457 59.0576 814.501 81.8328 803.453 86.4261C809.739 84.895 835.265 72.072 839.837 83.9381C844.599 95.6128 819.454 119.728 805.739 131.594C814.692 124.513 828.598 113.412 837.17 111.115C858.695 105.182 868.22 131.785 841.17 157.431Z" fill="white"/>
<path d="M865.625 146.139C852.671 126.426 860.481 91.4023 863.72 79.5362C867.911 63.4595 884.864 66.3303 888.484 81.45C890.198 88.7228 889.817 96.5697 888.865 104.034C884.483 140.206 913.629 117.24 913.629 138.293C913.629 158.197 877.054 163.364 865.625 146.139Z" fill="white"/>
<path d="M945.249 155.135C910.198 151.307 911.722 109.967 915.532 94.8473C926.009 62.3112 969.823 59.8231 976.871 99.0578C980.681 122.216 970.013 157.623 945.249 155.135ZM944.106 122.981C950.773 123.556 954.774 110.35 951.535 104.991C946.392 96.5698 938.772 110.541 938.582 114.943C938.201 118.388 940.487 122.407 944.106 122.981Z" fill="white"/>
<path d="M973.261 153.634C971.699 151.109 970.68 150.733 972.775 146.139C976.585 138.675 988.53 137.527 994.435 133.125C998.054 130.637 1000.15 126.426 1000.15 122.024C998.626 107.479 978.434 104.034 985.863 85.0864C989.787 74.7181 1002.14 65.5754 1013.19 64.46C1014.94 64.2832 1016.66 64.3081 1018.31 64.562C1019.89 64.8054 1021.4 65.2593 1022.82 65.9476C1033.87 71.1151 1028.14 82.407 1017.29 85.0864C1014.62 86.0434 1014.64 86.6109 1012.17 88.142C999.785 96.3717 1003.64 102.292 1010.12 108.608C1039.07 137.316 990.666 164.89 973.261 153.634Z" fill="white"/>
<path d="M862.357 187.09C860.702 193.415 863.381 198.346 872.925 198.249C900.324 200.409 925.841 179.921 925.706 153.884C925.05 151.316 921.74 147.181 917.927 150.484C914.114 153.788 905.659 168.077 901.592 172.053C890.663 182.741 878.738 184.015 877.02 179.216C875.302 174.417 870.548 170.717 869.524 180.95C867.493 182.899 863.161 184.02 862.357 187.09Z" fill="white"/>
<path d="M955.799 248.332C953.703 244.505 953.894 237.232 953.513 232.83C953.132 229.385 952.751 225.749 952.56 221.729C949.512 222.686 946.465 222.686 943.417 222.495C942.845 234.935 939.988 253.308 927.034 246.227C916.367 241.251 919.068 152.064 936.403 158.38C945.737 161.059 944.75 181.92 944.369 196.083C946.465 196.275 948.941 196.466 951.227 196.849C951.036 187.471 947.736 172.925 948.689 167.375C950.975 155.509 960.309 150.724 965.833 158.38C975.167 170.82 979.991 227.854 971.8 245.462C969.133 251.012 959.609 255.414 955.799 248.332Z" fill="white"/>
<path d="M1012.05 248.715C986.147 250.629 980.432 219.241 980.622 199.337C980.622 194.169 981.003 171.586 986.718 166.801C991.29 162.782 999.1 162.973 1003.1 167.375C1005.2 169.672 1006.15 172.925 1006.34 175.987C1006.91 182.495 1005.39 189.576 1005.01 196.083C1004.81 199.528 1001.96 222.878 1011.86 222.878C1021.2 222.878 1020.24 191.299 1020.63 184.217C1021.01 179.241 1021.39 174.074 1023.48 169.672C1027.29 162.016 1039.48 161.251 1043.29 172.351C1053.96 201.825 1044.63 246.61 1012.05 248.715Z" fill="white"/>
<path d="M1067.73 249.672C1040.3 242.782 1044.49 162.59 1079.54 162.399C1102.21 162.399 1103.54 192.83 1080.68 201.251C1096.11 200.677 1101.06 212.16 1096.11 228.619C1092.3 241.825 1081.06 253.117 1067.73 249.672ZM1074.77 183.834C1077.44 185.94 1082.97 177.71 1078.97 177.136C1076.49 176.753 1072.87 181.92 1074.77 183.834ZM1074.97 229.385C1080.49 230.725 1083.73 219.241 1080.87 215.414C1078.39 212.734 1075.16 216.753 1074.2 218.859C1073.06 221.538 1072.11 227.662 1074.97 229.385Z" fill="white"/>
<path d="M657.159 350.9C655.815 351.644 653.715 352.016 650.859 352.016C646.755 352.016 643.479 350.768 641.031 348.272C638.607 345.728 637.395 342.38 637.395 338.228C637.395 334.124 638.631 330.8 641.103 328.256C643.575 325.712 646.827 324.44 650.859 324.44C653.787 324.44 655.887 324.764 657.159 325.412L656.871 329.084C655.239 328.436 653.235 328.112 650.859 328.112C647.955 328.112 645.639 329.048 643.911 330.92C642.183 332.792 641.319 335.228 641.319 338.228C641.319 341.348 642.159 343.796 643.839 345.572C645.543 347.42 647.883 348.344 650.859 348.344C653.379 348.344 655.383 347.948 656.871 347.156L657.159 350.9Z" fill="white"/>
<path d="M672.083 334.988C670.451 334.988 669.155 335.636 668.195 336.932C667.283 338.204 666.827 339.848 666.827 341.864C666.827 343.88 667.283 345.524 668.195 346.796C669.155 348.092 670.451 348.74 672.083 348.74C673.715 348.74 674.999 348.092 675.935 346.796C676.871 345.548 677.339 343.904 677.339 341.864C677.339 339.848 676.871 338.204 675.935 336.932C674.999 335.636 673.715 334.988 672.083 334.988ZM672.083 331.604C675.059 331.604 677.375 332.672 679.031 334.808C680.519 336.704 681.263 339.056 681.263 341.864C681.263 344.672 680.519 347.024 679.031 348.92C677.375 351.056 675.059 352.124 672.083 352.124C669.083 352.124 666.755 351.056 665.099 348.92C663.635 347.072 662.903 344.72 662.903 341.864C662.903 339.008 663.635 336.656 665.099 334.808C666.755 332.672 669.083 331.604 672.083 331.604Z" fill="white"/>
<path d="M712.347 351.548H708.603V338.876C708.603 336.332 707.475 335.06 705.219 335.06C704.115 335.06 703.203 335.516 702.483 336.428C701.619 337.484 701.187 338.972 701.187 340.892V351.548H697.407V338.876C697.407 336.332 696.279 335.06 694.023 335.06C692.895 335.06 691.995 335.504 691.323 336.392C690.483 337.448 690.063 338.948 690.063 340.892V351.548H686.247V337.04C686.247 335.936 686.235 334.976 686.211 334.16C686.187 333.344 686.151 332.66 686.103 332.108H689.847V333.872C690.927 332.408 692.619 331.676 694.923 331.676C695.907 331.676 696.891 331.964 697.875 332.54C698.883 333.164 699.591 333.944 699.999 334.88C701.343 332.744 703.347 331.676 706.011 331.676C708.051 331.676 709.635 332.288 710.763 333.512C711.819 334.64 712.347 336.188 712.347 338.156V351.548Z" fill="white"/>
<path d="M722.327 356.84H718.547V332H722.327L722.219 334.196C722.315 334.076 722.435 333.932 722.579 333.764C722.723 333.572 722.891 333.38 723.083 333.188C724.139 332.132 725.567 331.604 727.367 331.604C730.007 331.604 732.035 332.492 733.451 334.268C734.699 335.9 735.323 338.204 735.323 341.18C735.323 344.204 734.663 346.604 733.343 348.38C731.951 350.276 729.923 351.224 727.259 351.224C725.123 351.224 723.479 350.444 722.327 348.884V356.84ZM726.935 335.096C725.447 335.096 724.295 335.72 723.479 336.968C722.711 338.096 722.327 339.572 722.327 341.396C722.327 343.172 722.699 344.648 723.443 345.824C724.283 347.096 725.423 347.732 726.863 347.732C729.983 347.732 731.543 345.584 731.543 341.288C731.543 337.16 730.007 335.096 726.935 335.096Z" fill="white"/>
<path d="M750.855 351.728V349.82C749.679 351.356 747.987 352.124 745.779 352.124C743.379 352.124 741.603 351.452 740.451 350.108C739.635 349.124 739.227 347.924 739.227 346.508C739.227 341.612 742.827 339.164 750.027 339.164H750.567V338.516C750.567 336.164 749.475 334.988 747.291 334.988C745.323 334.988 743.379 335.504 741.459 336.536V333.008C743.283 332.072 745.299 331.604 747.507 331.604C749.811 331.604 751.491 332.144 752.547 333.224C753.675 334.4 754.239 336.224 754.239 338.696V347.084C754.239 349.292 754.311 350.84 754.455 351.728H750.855ZM750.567 342.512H749.811C747.939 342.512 746.499 342.68 745.491 343.016C743.883 343.544 743.079 344.588 743.079 346.148C743.079 347.876 744.075 348.74 746.067 348.74C749.067 348.74 750.567 346.916 750.567 343.268V342.512Z" fill="white"/>
<path d="M769.428 335.6C769.116 335.552 768.828 335.516 768.564 335.492C768.3 335.444 768.036 335.42 767.772 335.42C766.38 335.42 765.348 336.104 764.676 337.472C764.052 338.672 763.74 340.16 763.74 341.936V351.692H759.888V336.86C759.888 335.948 759.864 335.096 759.816 334.304C759.792 333.488 759.756 332.732 759.708 332.036H763.596V334.448C764.7 332.552 766.104 331.604 767.808 331.604C768.336 331.604 768.876 331.676 769.428 331.82V335.6Z" fill="white"/>
<path d="M782.578 351.548C781.666 351.932 780.634 352.124 779.482 352.124C777.202 352.124 775.726 351.512 775.054 350.288C774.55 349.472 774.298 347.9 774.298 345.572V335.384H771.202V331.82H774.298V327.536L778.186 326.276V331.82H782.002V335.384H778.186V346.58C778.186 347.972 778.822 348.668 780.094 348.668C780.934 348.668 781.666 348.512 782.29 348.2L782.578 351.548Z" fill="white"/>
<path d="M790.004 351.692H786.152V331.532H790.004V351.692ZM790.004 328.076H786.152V323.576H790.004V328.076Z" fill="white"/>
<path d="M799.212 351.548H795.288V322.892H799.212V351.548Z" fill="white"/>
<path d="M820.38 351.548H816.528V340.028C816.528 338.276 816.324 337.016 815.916 336.248C815.364 335.336 814.404 334.88 813.036 334.88C811.524 334.88 810.36 335.504 809.544 336.752C808.848 337.88 808.5 339.296 808.5 341V351.548H804.648V322.892H808.5V333.728C808.98 332.936 809.676 332.336 810.588 331.928C811.476 331.496 812.424 331.28 813.432 331.28C815.952 331.28 817.764 332.048 818.868 333.584C819.876 334.952 820.38 337.052 820.38 339.884V351.548Z" fill="white"/>
<path d="M841.348 343.232H829.216C829.288 344.96 829.756 346.304 830.62 347.264C831.508 348.296 832.732 348.812 834.292 348.812C836.452 348.812 838.36 348.344 840.016 347.408V351.044C838.096 351.764 836.152 352.124 834.184 352.124C831.088 352.124 828.784 351.14 827.272 349.172C825.952 347.42 825.292 344.972 825.292 341.828C825.292 338.804 826.024 336.344 827.488 334.448C828.952 332.552 830.92 331.604 833.392 331.604C836.152 331.604 838.216 332.588 839.584 334.556C840.76 336.236 841.348 338.456 841.348 341.216V343.232ZM837.424 339.812C837.424 338.468 837.076 337.34 836.38 336.428C835.66 335.468 834.712 334.988 833.536 334.988C832.336 334.988 831.316 335.48 830.476 336.464C829.636 337.448 829.216 338.564 829.216 339.812H837.424Z" fill="white"/>
<path d="M865.943 335.96C864.359 335.288 862.859 334.952 861.443 334.952C859.451 334.952 858.455 335.732 858.455 337.292C858.455 337.988 859.211 338.708 860.723 339.452C862.907 340.532 864.311 341.324 864.935 341.828C866.423 343.052 867.167 344.564 867.167 346.364C867.167 348.38 866.363 349.904 864.755 350.936C863.483 351.728 861.959 352.124 860.183 352.124C858.023 352.124 856.151 351.8 854.567 351.152L854.927 347.444C856.679 348.308 858.395 348.74 860.075 348.74C861.035 348.74 861.827 348.488 862.451 347.984C863.027 347.528 863.315 346.928 863.315 346.184C863.315 345.224 862.583 344.336 861.119 343.52C859.751 342.776 858.731 342.212 858.059 341.828C857.387 341.444 857.039 341.24 857.015 341.216C855.551 340.112 854.819 338.756 854.819 337.148C854.819 335.18 855.551 333.716 857.015 332.756C858.191 331.988 859.619 331.604 861.299 331.604C863.171 331.604 864.851 331.928 866.339 332.576L865.943 335.96Z" fill="white"/>
<path d="M883.577 351.728V349.748C882.281 351.332 880.577 352.124 878.465 352.124C876.113 352.124 874.325 351.416 873.101 350C872.021 348.68 871.481 346.904 871.481 344.672V332.072H875.333V343.952C875.333 347.144 876.497 348.74 878.825 348.74C880.385 348.74 881.573 348.152 882.389 346.976C883.037 346.016 883.361 344.708 883.361 343.052V332.072H887.176V346.76C887.176 348.536 887.249 350.192 887.393 351.728H883.577Z" fill="white"/>
<path d="M903.609 351.728V349.82C902.433 351.356 900.741 352.124 898.533 352.124C896.133 352.124 894.357 351.452 893.205 350.108C892.389 349.124 891.981 347.924 891.981 346.508C891.981 341.612 895.581 339.164 902.781 339.164H903.321V338.516C903.321 336.164 902.229 334.988 900.045 334.988C898.077 334.988 896.133 335.504 894.213 336.536V333.008C896.037 332.072 898.053 331.604 900.261 331.604C902.565 331.604 904.245 332.144 905.301 333.224C906.429 334.4 906.993 336.224 906.993 338.696V347.084C906.993 349.292 907.065 350.84 907.209 351.728H903.609ZM903.321 342.512H902.565C900.693 342.512 899.253 342.68 898.245 343.016C896.637 343.544 895.833 344.588 895.833 346.148C895.833 347.876 896.829 348.74 898.821 348.74C901.821 348.74 903.321 346.916 903.321 343.268V342.512Z" fill="white"/>
<path d="M922.65 335.96C921.066 335.288 919.566 334.952 918.15 334.952C916.158 334.952 915.162 335.732 915.162 337.292C915.162 337.988 915.918 338.708 917.43 339.452C919.614 340.532 921.018 341.324 921.642 341.828C923.13 343.052 923.874 344.564 923.874 346.364C923.874 348.38 923.07 349.904 921.462 350.936C920.19 351.728 918.666 352.124 916.89 352.124C914.73 352.124 912.858 351.8 911.274 351.152L911.634 347.444C913.386 348.308 915.102 348.74 916.782 348.74C917.742 348.74 918.534 348.488 919.158 347.984C919.734 347.528 920.022 346.928 920.022 346.184C920.022 345.224 919.29 344.336 917.826 343.52C916.458 342.776 915.438 342.212 914.766 341.828C914.094 341.444 913.746 341.24 913.722 341.216C912.258 340.112 911.526 338.756 911.526 337.148C911.526 335.18 912.258 333.716 913.722 332.756C914.898 331.988 916.326 331.604 918.006 331.604C919.878 331.604 921.558 331.928 923.046 332.576L922.65 335.96Z" fill="white"/>
<path d="M941.949 351.692H938.097V331.532H941.949V351.692ZM941.949 328.076H938.097V323.576H941.949V328.076Z" fill="white"/>
<path d="M955.153 334.7C953.521 334.7 952.309 335.432 951.517 336.896C950.845 338.096 950.509 339.728 950.509 341.792C950.509 346.376 952.057 348.668 955.153 348.668C956.641 348.668 957.817 347.924 958.681 346.436C959.377 345.164 959.725 343.58 959.725 341.684C959.725 339.788 959.377 338.204 958.681 336.932C957.841 335.444 956.665 334.7 955.153 334.7ZM963.361 351.728H959.725V349.928C958.525 351.416 956.881 352.16 954.793 352.16C952.177 352.16 950.149 351.188 948.709 349.244C947.365 347.348 946.693 344.864 946.693 341.792C946.693 338.624 947.317 336.128 948.565 334.304C949.933 332.264 952.009 331.244 954.793 331.244C956.713 331.244 958.357 332.036 959.725 333.62V322.82H963.361V351.728Z" fill="white"/>
<path d="M984.293 343.232H972.161C972.233 344.96 972.701 346.304 973.565 347.264C974.453 348.296 975.677 348.812 977.237 348.812C979.397 348.812 981.305 348.344 982.961 347.408V351.044C981.041 351.764 979.097 352.124 977.129 352.124C974.033 352.124 971.729 351.14 970.217 349.172C968.897 347.42 968.237 344.972 968.237 341.828C968.237 338.804 968.969 336.344 970.433 334.448C971.897 332.552 973.865 331.604 976.337 331.604C979.097 331.604 981.161 332.588 982.529 334.556C983.705 336.236 984.293 338.456 984.293 341.216V343.232ZM980.369 339.812C980.369 338.468 980.021 337.34 979.325 336.428C978.605 335.468 977.657 334.988 976.481 334.988C975.281 334.988 974.261 335.48 973.421 336.464C972.581 337.448 972.161 338.564 972.161 339.812H980.369Z" fill="white"/>
<path d="M992.75 351.692H988.898V331.532H992.75V351.692ZM992.75 328.076H988.898V323.576H992.75V328.076Z" fill="white"/>
<path d="M1008.73 351.728V349.82C1007.55 351.356 1005.86 352.124 1003.65 352.124C1001.25 352.124 999.474 351.452 998.322 350.108C997.506 349.124 997.098 347.924 997.098 346.508C997.098 341.612 1000.7 339.164 1007.9 339.164H1008.44V338.516C1008.44 336.164 1007.35 334.988 1005.16 334.988C1003.19 334.988 1001.25 335.504 999.33 336.536V333.008C1001.15 332.072 1003.17 331.604 1005.38 331.604C1007.68 331.604 1009.36 332.144 1010.42 333.224C1011.55 334.4 1012.11 336.224 1012.11 338.696V347.084C1012.11 349.292 1012.18 350.84 1012.33 351.728H1008.73ZM1008.44 342.512H1007.68C1005.81 342.512 1004.37 342.68 1003.36 343.016C1001.75 343.544 1000.95 344.588 1000.95 346.148C1000.95 347.876 1001.95 348.74 1003.94 348.74C1006.94 348.74 1008.44 346.916 1008.44 343.268V342.512Z" fill="white"/>
<path d="M1027.77 335.96C1026.18 335.288 1024.68 334.952 1023.27 334.952C1021.27 334.952 1020.28 335.732 1020.28 337.292C1020.28 337.988 1021.03 338.708 1022.55 339.452C1024.73 340.532 1026.13 341.324 1026.76 341.828C1028.25 343.052 1028.99 344.564 1028.99 346.364C1028.99 348.38 1028.19 349.904 1026.58 350.936C1025.31 351.728 1023.78 352.124 1022.01 352.124C1019.85 352.124 1017.97 351.8 1016.39 351.152L1016.75 347.444C1018.5 348.308 1020.22 348.74 1021.9 348.74C1022.86 348.74 1023.65 348.488 1024.27 347.984C1024.85 347.528 1025.14 346.928 1025.14 346.184C1025.14 345.224 1024.41 344.336 1022.94 343.52C1021.57 342.776 1020.55 342.212 1019.88 341.828C1019.21 341.444 1018.86 341.24 1018.84 341.216C1017.37 340.112 1016.64 338.756 1016.64 337.148C1016.64 335.18 1017.37 333.716 1018.84 332.756C1020.01 331.988 1021.44 331.604 1023.12 331.604C1024.99 331.604 1026.67 331.928 1028.16 332.576L1027.77 335.96Z" fill="white"/>
<path d="M1056.61 351.368C1055.26 351.8 1053.55 352.016 1051.46 352.016C1048.51 352.016 1046.18 350.984 1044.47 348.92C1042.94 347.072 1042.17 344.708 1042.17 341.828C1042.17 338.876 1043.06 336.44 1044.83 334.52C1046.63 332.624 1048.9 331.676 1051.64 331.676C1053.46 331.676 1055.12 331.928 1056.61 332.432L1056.32 335.924C1054.9 335.348 1053.43 335.06 1051.89 335.06C1050.02 335.06 1048.55 335.684 1047.5 336.932C1046.47 338.156 1045.95 339.788 1045.95 341.828C1045.95 343.748 1046.48 345.368 1047.53 346.688C1048.57 347.984 1049.93 348.632 1051.64 348.632C1053.2 348.632 1054.76 348.344 1056.32 347.768L1056.61 351.368Z" fill="white"/>
<path d="M1068.72 334.988C1067.08 334.988 1065.79 335.636 1064.83 336.932C1063.92 338.204 1063.46 339.848 1063.46 341.864C1063.46 343.88 1063.92 345.524 1064.83 346.796C1065.79 348.092 1067.08 348.74 1068.72 348.74C1070.35 348.74 1071.63 348.092 1072.57 346.796C1073.5 345.548 1073.97 343.904 1073.97 341.864C1073.97 339.848 1073.5 338.204 1072.57 336.932C1071.63 335.636 1070.35 334.988 1068.72 334.988ZM1068.72 331.604C1071.69 331.604 1074.01 332.672 1075.66 334.808C1077.15 336.704 1077.9 339.056 1077.9 341.864C1077.9 344.672 1077.15 347.024 1075.66 348.92C1074.01 351.056 1071.69 352.124 1068.72 352.124C1065.72 352.124 1063.39 351.056 1061.73 348.92C1060.27 347.072 1059.54 344.72 1059.54 341.864C1059.54 339.008 1060.27 336.656 1061.73 334.808C1063.39 332.672 1065.72 331.604 1068.72 331.604Z" fill="white"/>
<path d="M1108.98 351.548H1105.24V338.876C1105.24 336.332 1104.11 335.06 1101.85 335.06C1100.75 335.06 1099.84 335.516 1099.12 336.428C1098.25 337.484 1097.82 338.972 1097.82 340.892V351.548H1094.04V338.876C1094.04 336.332 1092.91 335.06 1090.66 335.06C1089.53 335.06 1088.63 335.504 1087.96 336.392C1087.12 337.448 1086.7 338.948 1086.7 340.892V351.548H1082.88V337.04C1082.88 335.936 1082.87 334.976 1082.84 334.16C1082.82 333.344 1082.78 332.66 1082.74 332.108H1086.48V333.872C1087.56 332.408 1089.25 331.676 1091.56 331.676C1092.54 331.676 1093.52 331.964 1094.51 332.54C1095.52 333.164 1096.22 333.944 1096.63 334.88C1097.98 332.744 1099.98 331.676 1102.64 331.676C1104.68 331.676 1106.27 332.288 1107.4 333.512C1108.45 334.64 1108.98 336.188 1108.98 338.156V351.548Z" fill="white"/>
<path d="M1133.33 334.988C1131.7 334.988 1130.41 335.636 1129.45 336.932C1128.53 338.204 1128.08 339.848 1128.08 341.864C1128.08 343.88 1128.53 345.524 1129.45 346.796C1130.41 348.092 1131.7 348.74 1133.33 348.74C1134.97 348.74 1136.25 348.092 1137.19 346.796C1138.12 345.548 1138.59 343.904 1138.59 341.864C1138.59 339.848 1138.12 338.204 1137.19 336.932C1136.25 335.636 1134.97 334.988 1133.33 334.988ZM1133.33 331.604C1136.31 331.604 1138.63 332.672 1140.28 334.808C1141.77 336.704 1142.51 339.056 1142.51 341.864C1142.51 344.672 1141.77 347.024 1140.28 348.92C1138.63 351.056 1136.31 352.124 1133.33 352.124C1130.33 352.124 1128.01 351.056 1126.35 348.92C1124.89 347.072 1124.15 344.72 1124.15 341.864C1124.15 339.008 1124.89 336.656 1126.35 334.808C1128.01 332.672 1130.33 331.604 1133.33 331.604Z" fill="white"/>
<path d="M1183.69 351.548H1179.94V338.876C1179.94 336.332 1178.82 335.06 1176.56 335.06C1175.46 335.06 1174.54 335.516 1173.82 336.428C1172.96 337.484 1172.53 338.972 1172.53 340.892V351.548H1168.75V338.876C1168.75 336.332 1167.62 335.06 1165.36 335.06C1164.24 335.06 1163.34 335.504 1162.66 336.392C1161.82 337.448 1161.4 338.948 1161.4 340.892V351.548H1157.59V337.04C1157.59 335.936 1157.58 334.976 1157.55 334.16C1157.53 333.344 1157.49 332.66 1157.44 332.108H1161.19V333.872C1162.27 332.408 1163.96 331.676 1166.26 331.676C1167.25 331.676 1168.23 331.964 1169.22 332.54C1170.22 333.164 1170.93 333.944 1171.34 334.88C1172.68 332.744 1174.69 331.676 1177.35 331.676C1179.39 331.676 1180.98 332.288 1182.1 333.512C1183.16 334.64 1183.69 336.188 1183.69 338.156V351.548Z" fill="white"/>
<path d="M1202.16 351.728V349.748C1200.87 351.332 1199.16 352.124 1197.05 352.124C1194.7 352.124 1192.91 351.416 1191.69 350C1190.61 348.68 1190.07 346.904 1190.07 344.672V332.072H1193.92V343.952C1193.92 347.144 1195.08 348.74 1197.41 348.74C1198.97 348.74 1200.16 348.152 1200.97 346.976C1201.62 346.016 1201.95 344.708 1201.95 343.052V332.072H1205.76V346.76C1205.76 348.536 1205.83 350.192 1205.98 351.728H1202.16Z" fill="white"/>
<path d="M1227.45 351.692H1223.71V339.632C1223.71 336.536 1222.58 334.988 1220.32 334.988C1218.79 334.988 1217.62 335.6 1216.83 336.824C1216.18 337.88 1215.86 339.236 1215.86 340.892V351.692H1212.11V337.04C1212.11 336.104 1212.09 335.228 1212.04 334.412C1212.02 333.572 1211.98 332.78 1211.93 332.036H1215.53V334.016C1216.71 332.408 1218.45 331.604 1220.75 331.604C1225.22 331.604 1227.45 334.088 1227.45 339.056V351.692Z" fill="white"/>
<path d="M1241.25 334.7C1239.62 334.7 1238.41 335.432 1237.62 336.896C1236.95 338.096 1236.61 339.728 1236.61 341.792C1236.61 346.376 1238.16 348.668 1241.25 348.668C1242.74 348.668 1243.92 347.924 1244.78 346.436C1245.48 345.164 1245.83 343.58 1245.83 341.684C1245.83 339.788 1245.48 338.204 1244.78 336.932C1243.94 335.444 1242.77 334.7 1241.25 334.7ZM1249.46 351.728H1245.83V349.928C1244.63 351.416 1242.98 352.16 1240.89 352.16C1238.28 352.16 1236.25 351.188 1234.81 349.244C1233.47 347.348 1232.79 344.864 1232.79 341.792C1232.79 338.624 1233.42 336.128 1234.67 334.304C1236.03 332.264 1238.11 331.244 1240.89 331.244C1242.81 331.244 1244.46 332.036 1245.83 333.62V322.82H1249.46V351.728Z" fill="white"/>
<path d="M1263.45 334.988C1261.81 334.988 1260.52 335.636 1259.56 336.932C1258.65 338.204 1258.19 339.848 1258.19 341.864C1258.19 343.88 1258.65 345.524 1259.56 346.796C1260.52 348.092 1261.81 348.74 1263.45 348.74C1265.08 348.74 1266.36 348.092 1267.3 346.796C1268.23 345.548 1268.7 343.904 1268.7 341.864C1268.7 339.848 1268.23 338.204 1267.3 336.932C1266.36 335.636 1265.08 334.988 1263.45 334.988ZM1263.45 331.604C1266.42 331.604 1268.74 332.672 1270.39 334.808C1271.88 336.704 1272.63 339.056 1272.63 341.864C1272.63 344.672 1271.88 347.024 1270.39 348.92C1268.74 351.056 1266.42 352.124 1263.45 352.124C1260.45 352.124 1258.12 351.056 1256.46 348.92C1255 347.072 1254.27 344.72 1254.27 341.864C1254.27 339.008 1255 336.656 1256.46 334.808C1258.12 332.672 1260.45 331.604 1263.45 331.604Z" fill="white"/>
<path d="M1282.11 353.96H1277.65V349.676H1282.11V353.96Z" fill="white"/>
<path d="M155.444 389.9C154.1 390.644 152 391.016 149.144 391.016C145.04 391.016 141.764 389.768 139.316 387.272C136.892 384.728 135.68 381.38 135.68 377.228C135.68 373.124 136.916 369.8 139.388 367.256C141.86 364.712 145.112 363.44 149.144 363.44C152.072 363.44 154.172 363.764 155.444 364.412L155.156 368.084C153.524 367.436 151.52 367.112 149.144 367.112C146.24 367.112 143.924 368.048 142.196 369.92C140.468 371.792 139.604 374.228 139.604 377.228C139.604 380.348 140.444 382.796 142.124 384.572C143.828 386.42 146.168 387.344 149.144 387.344C151.664 387.344 153.668 386.948 155.156 386.156L155.444 389.9Z" fill="white"/>
<path d="M172.78 390.728V388.82C171.604 390.356 169.912 391.124 167.704 391.124C165.304 391.124 163.528 390.452 162.376 389.108C161.56 388.124 161.152 386.924 161.152 385.508C161.152 380.612 164.752 378.164 171.952 378.164H172.492V377.516C172.492 375.164 171.4 373.988 169.216 373.988C167.248 373.988 165.304 374.504 163.384 375.536V372.008C165.208 371.072 167.224 370.604 169.432 370.604C171.736 370.604 173.416 371.144 174.472 372.224C175.6 373.4 176.164 375.224 176.164 377.696V386.084C176.164 388.292 176.236 389.84 176.38 390.728H172.78ZM172.492 381.512H171.736C169.864 381.512 168.424 381.68 167.416 382.016C165.808 382.544 165.004 383.588 165.004 385.148C165.004 386.876 166 387.74 167.992 387.74C170.992 387.74 172.492 385.916 172.492 382.268V381.512Z" fill="white"/>
<path d="M189.626 373.7C187.994 373.7 186.782 374.432 185.99 375.896C185.318 377.096 184.982 378.728 184.982 380.792C184.982 385.376 186.53 387.668 189.626 387.668C191.114 387.668 192.29 386.924 193.154 385.436C193.85 384.164 194.198 382.58 194.198 380.684C194.198 378.788 193.85 377.204 193.154 375.932C192.314 374.444 191.138 373.7 189.626 373.7ZM197.834 390.728H194.198V388.928C192.998 390.416 191.354 391.16 189.266 391.16C186.65 391.16 184.622 390.188 183.182 388.244C181.838 386.348 181.166 383.864 181.166 380.792C181.166 377.624 181.79 375.128 183.038 373.304C184.406 371.264 186.482 370.244 189.266 370.244C191.186 370.244 192.83 371.036 194.198 372.62V361.82H197.834V390.728Z" fill="white"/>
<path d="M214.23 390.728V388.82C213.054 390.356 211.362 391.124 209.154 391.124C206.754 391.124 204.978 390.452 203.826 389.108C203.01 388.124 202.602 386.924 202.602 385.508C202.602 380.612 206.202 378.164 213.402 378.164H213.942V377.516C213.942 375.164 212.85 373.988 210.666 373.988C208.698 373.988 206.754 374.504 204.834 375.536V372.008C206.658 371.072 208.674 370.604 210.882 370.604C213.186 370.604 214.866 371.144 215.922 372.224C217.05 373.4 217.614 375.224 217.614 377.696V386.084C217.614 388.292 217.686 389.84 217.83 390.728H214.23ZM213.942 381.512H213.186C211.314 381.512 209.874 381.68 208.866 382.016C207.258 382.544 206.454 383.588 206.454 385.148C206.454 386.876 207.45 387.74 209.442 387.74C212.442 387.74 213.942 385.916 213.942 382.268V381.512Z" fill="white"/>
<path d="M233.271 374.96C231.687 374.288 230.187 373.952 228.771 373.952C226.779 373.952 225.783 374.732 225.783 376.292C225.783 376.988 226.539 377.708 228.051 378.452C230.235 379.532 231.639 380.324 232.263 380.828C233.751 382.052 234.495 383.564 234.495 385.364C234.495 387.38 233.691 388.904 232.083 389.936C230.811 390.728 229.287 391.124 227.511 391.124C225.351 391.124 223.479 390.8 221.895 390.152L222.255 386.444C224.007 387.308 225.723 387.74 227.403 387.74C228.363 387.74 229.155 387.488 229.779 386.984C230.355 386.528 230.643 385.928 230.643 385.184C230.643 384.224 229.911 383.336 228.447 382.52C227.079 381.776 226.059 381.212 225.387 380.828C224.715 380.444 224.367 380.24 224.343 380.216C222.879 379.112 222.147 377.756 222.147 376.148C222.147 374.18 222.879 372.716 224.343 371.756C225.519 370.988 226.947 370.604 228.627 370.604C230.499 370.604 232.179 370.928 233.667 371.576L233.271 374.96Z" fill="white"/>
<path d="M248.133 390.548C247.221 390.932 246.189 391.124 245.037 391.124C242.757 391.124 241.281 390.512 240.609 389.288C240.105 388.472 239.853 386.9 239.853 384.572V374.384H236.757V370.82H239.853V366.536L243.741 365.276V370.82H247.557V374.384H243.741V385.58C243.741 386.972 244.377 387.668 245.649 387.668C246.489 387.668 247.221 387.512 247.845 387.2L248.133 390.548Z" fill="white"/>
<path d="M261.139 374.6C260.827 374.552 260.539 374.516 260.275 374.492C260.011 374.444 259.747 374.42 259.483 374.42C258.091 374.42 257.059 375.104 256.387 376.472C255.763 377.672 255.451 379.16 255.451 380.936V390.692H251.599V375.86C251.599 374.948 251.575 374.096 251.527 373.304C251.503 372.488 251.467 371.732 251.419 371.036H255.307V373.448C256.411 371.552 257.815 370.604 259.519 370.604C260.047 370.604 260.587 370.676 261.139 370.82V374.6Z" fill="white"/>
<path d="M279.797 382.232H267.665C267.737 383.96 268.205 385.304 269.069 386.264C269.957 387.296 271.181 387.812 272.741 387.812C274.901 387.812 276.809 387.344 278.465 386.408V390.044C276.545 390.764 274.601 391.124 272.633 391.124C269.537 391.124 267.233 390.14 265.721 388.172C264.401 386.42 263.741 383.972 263.741 380.828C263.741 377.804 264.473 375.344 265.937 373.448C267.401 371.552 269.369 370.604 271.841 370.604C274.601 370.604 276.665 371.588 278.033 373.556C279.209 375.236 279.797 377.456 279.797 380.216V382.232ZM275.873 378.812C275.873 377.468 275.525 376.34 274.829 375.428C274.109 374.468 273.161 373.988 271.985 373.988C270.785 373.988 269.765 374.48 268.925 375.464C268.085 376.448 267.665 377.564 267.665 378.812H275.873Z" fill="white"/>
<path d="M303.816 365.024C303.216 364.76 302.604 364.628 301.98 364.628C301.02 364.628 300.384 364.916 300.072 365.492C299.832 365.876 299.712 366.572 299.712 367.58C299.712 367.724 299.712 367.976 299.712 368.336C299.736 368.696 299.748 368.972 299.748 369.164V370.568H303.348V374.06H299.748V390.692H295.932V374.06H292.584V370.568H295.932V369.344C295.932 366.584 296.232 364.676 296.832 363.62C297.648 362.108 299.292 361.352 301.764 361.352C302.796 361.352 303.552 361.496 304.032 361.784L303.816 365.024Z" fill="white"/>
<path d="M317.002 374.6C316.69 374.552 316.402 374.516 316.138 374.492C315.874 374.444 315.61 374.42 315.346 374.42C313.954 374.42 312.922 375.104 312.25 376.472C311.626 377.672 311.314 379.16 311.314 380.936V390.692H307.462V375.86C307.462 374.948 307.438 374.096 307.39 373.304C307.366 372.488 307.33 371.732 307.282 371.036H311.17V373.448C312.274 371.552 313.678 370.604 315.382 370.604C315.91 370.604 316.45 370.676 317.002 370.82V374.6Z" fill="white"/>
<path d="M331.124 390.728V388.82C329.948 390.356 328.256 391.124 326.048 391.124C323.648 391.124 321.872 390.452 320.72 389.108C319.904 388.124 319.496 386.924 319.496 385.508C319.496 380.612 323.096 378.164 330.296 378.164H330.836V377.516C330.836 375.164 329.744 373.988 327.56 373.988C325.592 373.988 323.648 374.504 321.728 375.536V372.008C323.552 371.072 325.568 370.604 327.776 370.604C330.08 370.604 331.76 371.144 332.816 372.224C333.944 373.4 334.508 375.224 334.508 377.696V386.084C334.508 388.292 334.58 389.84 334.724 390.728H331.124ZM330.836 381.512H330.08C328.208 381.512 326.768 381.68 325.76 382.016C324.152 382.544 323.348 383.588 323.348 385.148C323.348 386.876 324.344 387.74 326.336 387.74C329.336 387.74 330.836 385.916 330.836 382.268V381.512Z" fill="white"/>
<path d="M350.165 374.96C348.581 374.288 347.081 373.952 345.665 373.952C343.673 373.952 342.677 374.732 342.677 376.292C342.677 376.988 343.433 377.708 344.945 378.452C347.129 379.532 348.533 380.324 349.157 380.828C350.645 382.052 351.389 383.564 351.389 385.364C351.389 387.38 350.585 388.904 348.977 389.936C347.705 390.728 346.181 391.124 344.405 391.124C342.245 391.124 340.373 390.8 338.789 390.152L339.149 386.444C340.901 387.308 342.617 387.74 344.297 387.74C345.257 387.74 346.049 387.488 346.673 386.984C347.249 386.528 347.537 385.928 347.537 385.184C347.537 384.224 346.805 383.336 345.341 382.52C343.973 381.776 342.953 381.212 342.281 380.828C341.609 380.444 341.261 380.24 341.237 380.216C339.773 379.112 339.041 377.756 339.041 376.148C339.041 374.18 339.773 372.716 341.237 371.756C342.413 370.988 343.841 370.604 345.521 370.604C347.393 370.604 349.073 370.928 350.561 371.576L350.165 374.96Z" fill="white"/>
<path d="M370.535 382.232H358.403C358.475 383.96 358.943 385.304 359.807 386.264C360.695 387.296 361.919 387.812 363.479 387.812C365.639 387.812 367.547 387.344 369.203 386.408V390.044C367.283 390.764 365.339 391.124 363.371 391.124C360.275 391.124 357.971 390.14 356.459 388.172C355.139 386.42 354.479 383.972 354.479 380.828C354.479 377.804 355.211 375.344 356.675 373.448C358.139 371.552 360.107 370.604 362.579 370.604C365.339 370.604 367.403 371.588 368.771 373.556C369.947 375.236 370.535 377.456 370.535 380.216V382.232ZM366.611 378.812C366.611 377.468 366.263 376.34 365.567 375.428C364.847 374.468 363.899 373.988 362.723 373.988C361.523 373.988 360.503 374.48 359.663 375.464C358.823 376.448 358.403 377.564 358.403 378.812H366.611Z" fill="white"/>
<path d="M385.04 374.96C383.456 374.288 381.956 373.952 380.54 373.952C378.548 373.952 377.552 374.732 377.552 376.292C377.552 376.988 378.308 377.708 379.82 378.452C382.004 379.532 383.408 380.324 384.032 380.828C385.52 382.052 386.264 383.564 386.264 385.364C386.264 387.38 385.46 388.904 383.852 389.936C382.58 390.728 381.056 391.124 379.28 391.124C377.12 391.124 375.248 390.8 373.664 390.152L374.024 386.444C375.776 387.308 377.492 387.74 379.172 387.74C380.132 387.74 380.924 387.488 381.548 386.984C382.124 386.528 382.412 385.928 382.412 385.184C382.412 384.224 381.68 383.336 380.216 382.52C378.848 381.776 377.828 381.212 377.156 380.828C376.484 380.444 376.136 380.24 376.112 380.216C374.648 379.112 373.916 377.756 373.916 376.148C373.916 374.18 374.648 372.716 376.112 371.756C377.288 370.988 378.716 370.604 380.396 370.604C382.268 370.604 383.948 370.928 385.436 371.576L385.04 374.96Z" fill="white"/>
<path d="M408.192 373.7C406.56 373.7 405.348 374.432 404.556 375.896C403.884 377.096 403.548 378.728 403.548 380.792C403.548 385.376 405.096 387.668 408.192 387.668C409.68 387.668 410.856 386.924 411.72 385.436C412.416 384.164 412.764 382.58 412.764 380.684C412.764 378.788 412.416 377.204 411.72 375.932C410.88 374.444 409.704 373.7 408.192 373.7ZM416.4 390.728H412.764V388.928C411.564 390.416 409.92 391.16 407.832 391.16C405.216 391.16 403.188 390.188 401.748 388.244C400.404 386.348 399.732 383.864 399.732 380.792C399.732 377.624 400.356 375.128 401.604 373.304C402.972 371.264 405.048 370.244 407.832 370.244C409.752 370.244 411.396 371.036 412.764 372.62V361.82H416.4V390.728Z" fill="white"/>
<path d="M437.332 382.232H425.2C425.272 383.96 425.74 385.304 426.604 386.264C427.492 387.296 428.716 387.812 430.276 387.812C432.436 387.812 434.344 387.344 436 386.408V390.044C434.08 390.764 432.136 391.124 430.168 391.124C427.072 391.124 424.768 390.14 423.256 388.172C421.936 386.42 421.276 383.972 421.276 380.828C421.276 377.804 422.008 375.344 423.472 373.448C424.936 371.552 426.904 370.604 429.376 370.604C432.136 370.604 434.2 371.588 435.568 373.556C436.744 375.236 437.332 377.456 437.332 380.216V382.232ZM433.408 378.812C433.408 377.468 433.06 376.34 432.364 375.428C431.644 374.468 430.696 373.988 429.52 373.988C428.32 373.988 427.3 374.48 426.46 375.464C425.62 376.448 425.2 377.564 425.2 378.812H433.408Z" fill="white"/>
<path d="M461.927 374.96C460.343 374.288 458.843 373.952 457.427 373.952C455.435 373.952 454.439 374.732 454.439 376.292C454.439 376.988 455.195 377.708 456.707 378.452C458.891 379.532 460.295 380.324 460.919 380.828C462.407 382.052 463.151 383.564 463.151 385.364C463.151 387.38 462.347 388.904 460.739 389.936C459.467 390.728 457.943 391.124 456.167 391.124C454.007 391.124 452.135 390.8 450.551 390.152L450.911 386.444C452.663 387.308 454.379 387.74 456.059 387.74C457.019 387.74 457.811 387.488 458.435 386.984C459.011 386.528 459.299 385.928 459.299 385.184C459.299 384.224 458.567 383.336 457.103 382.52C455.735 381.776 454.715 381.212 454.043 380.828C453.371 380.444 453.023 380.24 452.999 380.216C451.535 379.112 450.803 377.756 450.803 376.148C450.803 374.18 451.535 372.716 452.999 371.756C454.175 370.988 455.603 370.604 457.283 370.604C459.155 370.604 460.835 370.928 462.323 371.576L461.927 374.96Z" fill="white"/>
<path d="M479.561 390.728V388.748C478.265 390.332 476.561 391.124 474.449 391.124C472.097 391.124 470.309 390.416 469.085 389C468.005 387.68 467.465 385.904 467.465 383.672V371.072H471.317V382.952C471.317 386.144 472.481 387.74 474.809 387.74C476.369 387.74 477.557 387.152 478.373 385.976C479.021 385.016 479.345 383.708 479.345 382.052V371.072H483.161V385.76C483.161 387.536 483.233 389.192 483.377 390.728H479.561Z" fill="white"/>
<path d="M499.593 390.728V388.82C498.417 390.356 496.725 391.124 494.517 391.124C492.117 391.124 490.341 390.452 489.189 389.108C488.373 388.124 487.965 386.924 487.965 385.508C487.965 380.612 491.565 378.164 498.765 378.164H499.305V377.516C499.305 375.164 498.213 373.988 496.029 373.988C494.061 373.988 492.117 374.504 490.197 375.536V372.008C492.021 371.072 494.037 370.604 496.245 370.604C498.549 370.604 500.229 371.144 501.285 372.224C502.413 373.4 502.977 375.224 502.977 377.696V386.084C502.977 388.292 503.049 389.84 503.193 390.728H499.593ZM499.305 381.512H498.549C496.677 381.512 495.237 381.68 494.229 382.016C492.621 382.544 491.817 383.588 491.817 385.148C491.817 386.876 492.813 387.74 494.805 387.74C497.805 387.74 499.305 385.916 499.305 382.268V381.512Z" fill="white"/>
<path d="M529.3 390.728V388.82C528.124 390.356 526.432 391.124 524.224 391.124C521.824 391.124 520.048 390.452 518.896 389.108C518.08 388.124 517.672 386.924 517.672 385.508C517.672 380.612 521.272 378.164 528.472 378.164H529.012V377.516C529.012 375.164 527.92 373.988 525.736 373.988C523.768 373.988 521.824 374.504 519.904 375.536V372.008C521.728 371.072 523.744 370.604 525.952 370.604C528.256 370.604 529.936 371.144 530.992 372.224C532.12 373.4 532.684 375.224 532.684 377.696V386.084C532.684 388.292 532.756 389.84 532.9 390.728H529.3ZM529.012 381.512H528.256C526.384 381.512 524.944 381.68 523.936 382.016C522.328 382.544 521.524 383.588 521.524 385.148C521.524 386.876 522.52 387.74 524.512 387.74C527.512 387.74 529.012 385.916 529.012 382.268V381.512Z" fill="white"/>
<path d="M550.717 390.728V388.748C549.421 390.332 547.717 391.124 545.605 391.124C543.253 391.124 541.465 390.416 540.241 389C539.161 387.68 538.621 385.904 538.621 383.672V371.072H542.473V382.952C542.473 386.144 543.637 387.74 545.965 387.74C547.525 387.74 548.713 387.152 549.529 385.976C550.177 385.016 550.501 383.708 550.501 382.052V371.072H554.317V385.76C554.317 387.536 554.389 389.192 554.533 390.728H550.717Z" fill="white"/>
<path d="M569.777 390.548C568.865 390.932 567.833 391.124 566.681 391.124C564.401 391.124 562.925 390.512 562.253 389.288C561.749 388.472 561.497 386.9 561.497 384.572V374.384H558.401V370.82H561.497V366.536L565.385 365.276V370.82H569.201V374.384H565.385V385.58C565.385 386.972 566.021 387.668 567.293 387.668C568.133 387.668 568.865 387.512 569.489 387.2L569.777 390.548Z" fill="white"/>
<path d="M581.415 373.988C579.783 373.988 578.487 374.636 577.527 375.932C576.615 377.204 576.159 378.848 576.159 380.864C576.159 382.88 576.615 384.524 577.527 385.796C578.487 387.092 579.783 387.74 581.415 387.74C583.047 387.74 584.331 387.092 585.267 385.796C586.203 384.548 586.671 382.904 586.671 380.864C586.671 378.848 586.203 377.204 585.267 375.932C584.331 374.636 583.047 373.988 581.415 373.988ZM581.415 370.604C584.391 370.604 586.707 371.672 588.363 373.808C589.851 375.704 590.595 378.056 590.595 380.864C590.595 383.672 589.851 386.024 588.363 387.92C586.707 390.056 584.391 391.124 581.415 391.124C578.415 391.124 576.087 390.056 574.431 387.92C572.967 386.072 572.235 383.72 572.235 380.864C572.235 378.008 572.967 375.656 574.431 373.808C576.087 371.672 578.415 370.604 581.415 370.604Z" fill="white"/>
<path d="M604.615 374.6C604.303 374.552 604.015 374.516 603.751 374.492C603.487 374.444 603.223 374.42 602.959 374.42C601.567 374.42 600.535 375.104 599.863 376.472C599.239 377.672 598.927 379.16 598.927 380.936V390.692H595.075V375.86C595.075 374.948 595.051 374.096 595.003 373.304C594.979 372.488 594.943 371.732 594.895 371.036H598.783V373.448C599.887 371.552 601.291 370.604 602.995 370.604C603.523 370.604 604.063 370.676 604.615 370.82V374.6Z" fill="white"/>
<path d="M612.113 390.692H608.261V370.532H612.113V390.692ZM612.113 367.076H608.261V362.576H612.113V367.076Z" fill="white"/>
<path d="M628.089 390.728V388.82C626.913 390.356 625.221 391.124 623.013 391.124C620.613 391.124 618.837 390.452 617.685 389.108C616.869 388.124 616.461 386.924 616.461 385.508C616.461 380.612 620.061 378.164 627.261 378.164H627.801V377.516C627.801 375.164 626.709 373.988 624.525 373.988C622.557 373.988 620.613 374.504 618.693 375.536V372.008C620.517 371.072 622.533 370.604 624.741 370.604C627.045 370.604 628.725 371.144 629.781 372.224C630.909 373.4 631.473 375.224 631.473 377.696V386.084C631.473 388.292 631.545 389.84 631.689 390.728H628.089ZM627.801 381.512H627.045C625.173 381.512 623.733 381.68 622.725 382.016C621.117 382.544 620.313 383.588 620.313 385.148C620.313 386.876 621.309 387.74 623.301 387.74C626.301 387.74 627.801 385.916 627.801 382.268V381.512Z" fill="white"/>
<path d="M642.702 388.352L639.57 395.84H636.438L638.346 388.352H642.702Z" fill="white"/>
<path d="M662.07 390.692H658.218V370.532H662.07V390.692ZM662.07 367.076H658.218V362.576H662.07V367.076Z" fill="white"/>
<path d="M683.302 390.692H679.558V378.632C679.558 375.536 678.43 373.988 676.174 373.988C674.638 373.988 673.474 374.6 672.682 375.824C672.034 376.88 671.71 378.236 671.71 379.892V390.692H667.966V376.04C667.966 375.104 667.942 374.228 667.894 373.412C667.87 372.572 667.834 371.78 667.786 371.036H671.386V373.016C672.562 371.408 674.302 370.604 676.606 370.604C681.07 370.604 683.302 373.088 683.302 378.056V390.692Z" fill="white"/>
<path d="M699.302 374.96C697.718 374.288 696.218 373.952 694.802 373.952C692.81 373.952 691.814 374.732 691.814 376.292C691.814 376.988 692.57 377.708 694.082 378.452C696.266 379.532 697.67 380.324 698.294 380.828C699.782 382.052 700.526 383.564 700.526 385.364C700.526 387.38 699.722 388.904 698.114 389.936C696.842 390.728 695.318 391.124 693.542 391.124C691.382 391.124 689.51 390.8 687.926 390.152L688.286 386.444C690.038 387.308 691.754 387.74 693.434 387.74C694.394 387.74 695.186 387.488 695.81 386.984C696.386 386.528 696.674 385.928 696.674 385.184C696.674 384.224 695.942 383.336 694.478 382.52C693.11 381.776 692.09 381.212 691.418 380.828C690.746 380.444 690.398 380.24 690.374 380.216C688.91 379.112 688.178 377.756 688.178 376.148C688.178 374.18 688.91 372.716 690.374 371.756C691.55 370.988 692.978 370.604 694.658 370.604C696.53 370.604 698.21 370.928 699.698 371.576L699.302 374.96Z" fill="white"/>
<path d="M708.44 395.84H704.66V371H708.44L708.332 373.196C708.428 373.076 708.548 372.932 708.692 372.764C708.836 372.572 709.004 372.38 709.196 372.188C710.252 371.132 711.68 370.604 713.48 370.604C716.12 370.604 718.148 371.492 719.564 373.268C720.812 374.9 721.436 377.204 721.436 380.18C721.436 383.204 720.776 385.604 719.456 387.38C718.064 389.276 716.036 390.224 713.372 390.224C711.236 390.224 709.592 389.444 708.44 387.884V395.84ZM713.048 374.096C711.56 374.096 710.408 374.72 709.592 375.968C708.824 377.096 708.44 378.572 708.44 380.396C708.44 382.172 708.812 383.648 709.556 384.824C710.396 386.096 711.536 386.732 712.976 386.732C716.096 386.732 717.656 384.584 717.656 380.288C717.656 376.16 716.12 374.096 713.048 374.096Z" fill="white"/>
<path d="M730.344 390.692H726.492V370.532H730.344V390.692ZM730.344 367.076H726.492V362.576H730.344V367.076Z" fill="white"/>
<path d="M745.275 374.6C744.963 374.552 744.675 374.516 744.411 374.492C744.147 374.444 743.883 374.42 743.619 374.42C742.227 374.42 741.195 375.104 740.523 376.472C739.899 377.672 739.587 379.16 739.587 380.936V390.692H735.735V375.86C735.735 374.948 735.711 374.096 735.663 373.304C735.639 372.488 735.603 371.732 735.555 371.036H739.443V373.448C740.547 371.552 741.952 370.604 743.656 370.604C744.184 370.604 744.723 370.676 745.275 370.82V374.6Z" fill="white"/>
<path d="M763.934 382.232H751.802C751.874 383.96 752.342 385.304 753.206 386.264C754.094 387.296 755.318 387.812 756.878 387.812C759.038 387.812 760.946 387.344 762.602 386.408V390.044C760.682 390.764 758.738 391.124 756.77 391.124C753.674 391.124 751.37 390.14 749.858 388.172C748.538 386.42 747.878 383.972 747.878 380.828C747.878 377.804 748.61 375.344 750.074 373.448C751.538 371.552 753.506 370.604 755.978 370.604C758.738 370.604 760.802 371.588 762.17 373.556C763.346 375.236 763.934 377.456 763.934 380.216V382.232ZM760.01 378.812C760.01 377.468 759.662 376.34 758.966 375.428C758.246 374.468 757.298 373.988 756.122 373.988C754.922 373.988 753.902 374.48 753.062 375.464C752.222 376.448 751.802 377.564 751.802 378.812H760.01Z" fill="white"/>
<path d="M786.693 373.988C785.061 373.988 783.765 374.636 782.805 375.932C781.893 377.204 781.437 378.848 781.437 380.864C781.437 382.88 781.893 384.524 782.805 385.796C783.765 387.092 785.061 387.74 786.693 387.74C788.325 387.74 789.609 387.092 790.545 385.796C791.481 384.548 791.949 382.904 791.949 380.864C791.949 378.848 791.481 377.204 790.545 375.932C789.609 374.636 788.325 373.988 786.693 373.988ZM786.693 370.604C789.669 370.604 791.985 371.672 793.641 373.808C795.129 375.704 795.873 378.056 795.873 380.864C795.873 383.672 795.129 386.024 793.641 387.92C791.985 390.056 789.669 391.124 786.693 391.124C783.693 391.124 781.365 390.056 779.709 387.92C778.245 386.072 777.513 383.72 777.513 380.864C777.513 378.008 778.245 375.656 779.709 373.808C781.365 371.672 783.693 370.604 786.693 370.604Z" fill="white"/>
<path d="M812.737 390.728V388.748C811.441 390.332 809.737 391.124 807.625 391.124C805.273 391.124 803.485 390.416 802.261 389C801.181 387.68 800.641 385.904 800.641 383.672V371.072H804.493V382.952C804.493 386.144 805.657 387.74 807.985 387.74C809.545 387.74 810.733 387.152 811.549 385.976C812.197 385.016 812.521 383.708 812.521 382.052V371.072H816.337V385.76C816.337 387.536 816.409 389.192 816.553 390.728H812.737Z" fill="white"/>
<path d="M831.797 390.548C830.885 390.932 829.853 391.124 828.701 391.124C826.421 391.124 824.945 390.512 824.273 389.288C823.769 388.472 823.517 386.9 823.517 384.572V374.384H820.421V370.82H823.517V366.536L827.405 365.276V370.82H831.221V374.384H827.405V385.58C827.405 386.972 828.041 387.668 829.313 387.668C830.153 387.668 830.885 387.512 831.509 387.2L831.797 390.548Z" fill="white"/>
<path d="M844.803 374.6C844.491 374.552 844.203 374.516 843.939 374.492C843.675 374.444 843.411 374.42 843.147 374.42C841.755 374.42 840.723 375.104 840.051 376.472C839.427 377.672 839.115 379.16 839.115 380.936V390.692H835.263V375.86C835.263 374.948 835.239 374.096 835.191 373.304C835.167 372.488 835.131 371.732 835.083 371.036H838.971V373.448C840.075 371.552 841.479 370.604 843.183 370.604C843.711 370.604 844.251 370.676 844.803 370.82V374.6Z" fill="white"/>
<path d="M858.925 390.728V388.82C857.749 390.356 856.057 391.124 853.849 391.124C851.449 391.124 849.673 390.452 848.521 389.108C847.705 388.124 847.297 386.924 847.297 385.508C847.297 380.612 850.897 378.164 858.097 378.164H858.637V377.516C858.637 375.164 857.545 373.988 855.361 373.988C853.393 373.988 851.449 374.504 849.529 375.536V372.008C851.353 371.072 853.369 370.604 855.577 370.604C857.881 370.604 859.561 371.144 860.617 372.224C861.745 373.4 862.309 375.224 862.309 377.696V386.084C862.309 388.292 862.381 389.84 862.525 390.728H858.925ZM858.637 381.512H857.881C856.009 381.512 854.569 381.68 853.561 382.016C851.953 382.544 851.149 383.588 851.149 385.148C851.149 386.876 852.145 387.74 854.137 387.74C857.137 387.74 858.637 385.916 858.637 382.268V381.512Z" fill="white"/>
<path d="M877.966 374.96C876.382 374.288 874.882 373.952 873.466 373.952C871.474 373.952 870.478 374.732 870.478 376.292C870.478 376.988 871.234 377.708 872.746 378.452C874.93 379.532 876.334 380.324 876.958 380.828C878.446 382.052 879.19 383.564 879.19 385.364C879.19 387.38 878.386 388.904 876.778 389.936C875.506 390.728 873.982 391.124 872.206 391.124C870.046 391.124 868.174 390.8 866.59 390.152L866.95 386.444C868.702 387.308 870.418 387.74 872.098 387.74C873.058 387.74 873.85 387.488 874.474 386.984C875.05 386.528 875.338 385.928 875.338 385.184C875.338 384.224 874.606 383.336 873.142 382.52C871.774 381.776 870.754 381.212 870.082 380.828C869.41 380.444 869.062 380.24 869.038 380.216C867.574 379.112 866.842 377.756 866.842 376.148C866.842 374.18 867.574 372.716 869.038 371.756C870.214 370.988 871.642 370.604 873.322 370.604C875.194 370.604 876.874 370.928 878.362 371.576L877.966 374.96Z" fill="white"/>
<path d="M897.194 395.84H893.414V371H897.194L897.086 373.196C897.182 373.076 897.302 372.932 897.446 372.764C897.59 372.572 897.758 372.38 897.95 372.188C899.006 371.132 900.434 370.604 902.234 370.604C904.874 370.604 906.902 371.492 908.318 373.268C909.566 374.9 910.19 377.204 910.19 380.18C910.19 383.204 909.53 385.604 908.21 387.38C906.818 389.276 904.79 390.224 902.126 390.224C899.99 390.224 898.346 389.444 897.194 387.884V395.84ZM901.802 374.096C900.314 374.096 899.162 374.72 898.346 375.968C897.578 377.096 897.194 378.572 897.194 380.396C897.194 382.172 897.566 383.648 898.31 384.824C899.15 386.096 900.29 386.732 901.73 386.732C904.85 386.732 906.41 384.584 906.41 380.288C906.41 376.16 904.874 374.096 901.802 374.096Z" fill="white"/>
<path d="M930.258 382.232H918.126C918.198 383.96 918.666 385.304 919.53 386.264C920.418 387.296 921.642 387.812 923.202 387.812C925.362 387.812 927.27 387.344 928.926 386.408V390.044C927.006 390.764 925.062 391.124 923.094 391.124C919.998 391.124 917.694 390.14 916.182 388.172C914.862 386.42 914.202 383.972 914.202 380.828C914.202 377.804 914.934 375.344 916.398 373.448C917.862 371.552 919.83 370.604 922.302 370.604C925.062 370.604 927.126 371.588 928.494 373.556C929.67 375.236 930.258 377.456 930.258 380.216V382.232ZM926.334 378.812C926.334 377.468 925.986 376.34 925.29 375.428C924.57 374.468 923.622 373.988 922.446 373.988C921.246 373.988 920.226 374.48 919.386 375.464C918.546 376.448 918.126 377.564 918.126 378.812H926.334Z" fill="white"/>
<path d="M944.763 374.96C943.179 374.288 941.679 373.952 940.263 373.952C938.271 373.952 937.275 374.732 937.275 376.292C937.275 376.988 938.031 377.708 939.543 378.452C941.727 379.532 943.131 380.324 943.755 380.828C945.243 382.052 945.987 383.564 945.987 385.364C945.987 387.38 945.183 388.904 943.575 389.936C942.303 390.728 940.779 391.124 939.003 391.124C936.843 391.124 934.971 390.8 933.387 390.152L933.747 386.444C935.499 387.308 937.215 387.74 938.895 387.74C939.855 387.74 940.647 387.488 941.271 386.984C941.847 386.528 942.135 385.928 942.135 385.184C942.135 384.224 941.403 383.336 939.939 382.52C938.571 381.776 937.551 381.212 936.879 380.828C936.207 380.444 935.859 380.24 935.835 380.216C934.371 379.112 933.639 377.756 933.639 376.148C933.639 374.18 934.371 372.716 935.835 371.756C937.011 370.988 938.439 370.604 940.119 370.604C941.991 370.604 943.671 370.928 945.159 371.576L944.763 374.96Z" fill="white"/>
<path d="M960.021 374.96C958.437 374.288 956.937 373.952 955.521 373.952C953.529 373.952 952.533 374.732 952.533 376.292C952.533 376.988 953.289 377.708 954.801 378.452C956.985 379.532 958.389 380.324 959.013 380.828C960.501 382.052 961.245 383.564 961.245 385.364C961.245 387.38 960.441 388.904 958.833 389.936C957.561 390.728 956.037 391.124 954.261 391.124C952.101 391.124 950.229 390.8 948.645 390.152L949.005 386.444C950.757 387.308 952.473 387.74 954.153 387.74C955.113 387.74 955.905 387.488 956.529 386.984C957.105 386.528 957.393 385.928 957.393 385.184C957.393 384.224 956.661 383.336 955.197 382.52C953.829 381.776 952.809 381.212 952.137 380.828C951.465 380.444 951.117 380.24 951.093 380.216C949.629 379.112 948.897 377.756 948.897 376.148C948.897 374.18 949.629 372.716 951.093 371.756C952.269 370.988 953.697 370.604 955.377 370.604C957.249 370.604 958.929 370.928 960.417 371.576L960.021 374.96Z" fill="white"/>
<path d="M973.443 373.988C971.811 373.988 970.515 374.636 969.555 375.932C968.643 377.204 968.187 378.848 968.187 380.864C968.187 382.88 968.643 384.524 969.555 385.796C970.515 387.092 971.811 387.74 973.443 387.74C975.075 387.74 976.359 387.092 977.295 385.796C978.231 384.548 978.699 382.904 978.699 380.864C978.699 378.848 978.231 377.204 977.295 375.932C976.359 374.636 975.075 373.988 973.443 373.988ZM973.443 370.604C976.419 370.604 978.735 371.672 980.391 373.808C981.879 375.704 982.623 378.056 982.623 380.864C982.623 383.672 981.879 386.024 980.391 387.92C978.735 390.056 976.419 391.124 973.443 391.124C970.443 391.124 968.115 390.056 966.459 387.92C964.995 386.072 964.263 383.72 964.263 380.864C964.263 378.008 964.995 375.656 966.459 373.808C968.115 371.672 970.443 370.604 973.443 370.604Z" fill="white"/>
<path d="M997.687 390.728V388.82C996.511 390.356 994.819 391.124 992.611 391.124C990.211 391.124 988.435 390.452 987.283 389.108C986.467 388.124 986.059 386.924 986.059 385.508C986.059 380.612 989.659 378.164 996.859 378.164H997.399V377.516C997.399 375.164 996.307 373.988 994.123 373.988C992.155 373.988 990.211 374.504 988.291 375.536V372.008C990.115 371.072 992.131 370.604 994.339 370.604C996.643 370.604 998.323 371.144 999.379 372.224C1000.51 373.4 1001.07 375.224 1001.07 377.696V386.084C1001.07 388.292 1001.14 389.84 1001.29 390.728H997.687ZM997.399 381.512H996.643C994.771 381.512 993.331 381.68 992.323 382.016C990.715 382.544 989.911 383.588 989.911 385.148C989.911 386.876 990.907 387.74 992.899 387.74C995.899 387.74 997.399 385.916 997.399 382.268V381.512Z" fill="white"/>
<path d="M1016.73 374.96C1015.14 374.288 1013.64 373.952 1012.23 373.952C1010.24 373.952 1009.24 374.732 1009.24 376.292C1009.24 376.988 1010 377.708 1011.51 378.452C1013.69 379.532 1015.1 380.324 1015.72 380.828C1017.21 382.052 1017.95 383.564 1017.95 385.364C1017.95 387.38 1017.15 388.904 1015.54 389.936C1014.27 390.728 1012.74 391.124 1010.97 391.124C1008.81 391.124 1006.94 390.8 1005.35 390.152L1005.71 386.444C1007.46 387.308 1009.18 387.74 1010.86 387.74C1011.82 387.74 1012.61 387.488 1013.24 386.984C1013.81 386.528 1014.1 385.928 1014.1 385.184C1014.1 384.224 1013.37 383.336 1011.9 382.52C1010.54 381.776 1009.52 381.212 1008.84 380.828C1008.17 380.444 1007.82 380.24 1007.8 380.216C1006.34 379.112 1005.6 377.756 1005.6 376.148C1005.6 374.18 1006.34 372.716 1007.8 371.756C1008.98 370.988 1010.4 370.604 1012.08 370.604C1013.96 370.604 1015.64 370.928 1017.12 371.576L1016.73 374.96Z" fill="white"/>
<path d="M1047.19 382.232H1035.06C1035.13 383.96 1035.6 385.304 1036.46 386.264C1037.35 387.296 1038.57 387.812 1040.13 387.812C1042.29 387.812 1044.2 387.344 1045.86 386.408V390.044C1043.94 390.764 1041.99 391.124 1040.02 391.124C1036.93 391.124 1034.62 390.14 1033.11 388.172C1031.79 386.42 1031.13 383.972 1031.13 380.828C1031.13 377.804 1031.86 375.344 1033.33 373.448C1034.79 371.552 1036.76 370.604 1039.23 370.604C1041.99 370.604 1044.06 371.588 1045.42 373.556C1046.6 375.236 1047.19 377.456 1047.19 380.216V382.232ZM1043.26 378.812C1043.26 377.468 1042.92 376.34 1042.22 375.428C1041.5 374.468 1040.55 373.988 1039.38 373.988C1038.18 373.988 1037.16 374.48 1036.32 375.464C1035.48 376.448 1035.06 377.564 1035.06 378.812H1043.26Z" fill="white"/>
<path d="M1075.27 390.368C1073.93 390.8 1072.21 391.016 1070.13 391.016C1067.17 391.016 1064.85 389.984 1063.14 387.92C1061.61 386.072 1060.84 383.708 1060.84 380.828C1060.84 377.876 1061.73 375.44 1063.5 373.52C1065.3 371.624 1067.57 370.676 1070.31 370.676C1072.13 370.676 1073.79 370.928 1075.27 371.432L1074.99 374.924C1073.57 374.348 1072.09 374.06 1070.56 374.06C1068.69 374.06 1067.22 374.684 1066.17 375.932C1065.13 377.156 1064.62 378.788 1064.62 380.828C1064.62 382.748 1065.15 384.368 1066.2 385.688C1067.23 386.984 1068.6 387.632 1070.31 387.632C1071.87 387.632 1073.43 387.344 1074.99 386.768L1075.27 390.368Z" fill="white"/>
<path d="M1087.38 373.988C1085.75 373.988 1084.46 374.636 1083.5 375.932C1082.58 377.204 1082.13 378.848 1082.13 380.864C1082.13 382.88 1082.58 384.524 1083.5 385.796C1084.46 387.092 1085.75 387.74 1087.38 387.74C1089.02 387.74 1090.3 387.092 1091.24 385.796C1092.17 384.548 1092.64 382.904 1092.64 380.864C1092.64 378.848 1092.17 377.204 1091.24 375.932C1090.3 374.636 1089.02 373.988 1087.38 373.988ZM1087.38 370.604C1090.36 370.604 1092.68 371.672 1094.33 373.808C1095.82 375.704 1096.56 378.056 1096.56 380.864C1096.56 383.672 1095.82 386.024 1094.33 387.92C1092.68 390.056 1090.36 391.124 1087.38 391.124C1084.38 391.124 1082.06 390.056 1080.4 387.92C1078.94 386.072 1078.2 383.72 1078.2 380.864C1078.2 378.008 1078.94 375.656 1080.4 373.808C1082.06 371.672 1084.38 370.604 1087.38 370.604Z" fill="white"/>
<path d="M1116.88 390.692H1113.14V378.632C1113.14 375.536 1112.01 373.988 1109.76 373.988C1108.22 373.988 1107.06 374.6 1106.26 375.824C1105.62 376.88 1105.29 378.236 1105.29 379.892V390.692H1101.55V376.04C1101.55 375.104 1101.52 374.228 1101.48 373.412C1101.45 372.572 1101.42 371.78 1101.37 371.036H1104.97V373.016C1106.14 371.408 1107.88 370.604 1110.19 370.604C1114.65 370.604 1116.88 373.088 1116.88 378.056V390.692Z" fill="white"/>
<path d="M1132.88 374.96C1131.3 374.288 1129.8 373.952 1128.38 373.952C1126.39 373.952 1125.4 374.732 1125.4 376.292C1125.4 376.988 1126.15 377.708 1127.66 378.452C1129.85 379.532 1131.25 380.324 1131.88 380.828C1133.36 382.052 1134.11 383.564 1134.11 385.364C1134.11 387.38 1133.3 388.904 1131.7 389.936C1130.42 390.728 1128.9 391.124 1127.12 391.124C1124.96 391.124 1123.09 390.8 1121.51 390.152L1121.87 386.444C1123.62 387.308 1125.34 387.74 1127.02 387.74C1127.98 387.74 1128.77 387.488 1129.39 386.984C1129.97 386.528 1130.26 385.928 1130.26 385.184C1130.26 384.224 1129.52 383.336 1128.06 382.52C1126.69 381.776 1125.67 381.212 1125 380.828C1124.33 380.444 1123.98 380.24 1123.96 380.216C1122.49 379.112 1121.76 377.756 1121.76 376.148C1121.76 374.18 1122.49 372.716 1123.96 371.756C1125.13 370.988 1126.56 370.604 1128.24 370.604C1130.11 370.604 1131.79 370.928 1133.28 371.576L1132.88 374.96Z" fill="white"/>
<path d="M1147.75 390.548C1146.83 390.932 1145.8 391.124 1144.65 391.124C1142.37 391.124 1140.89 390.512 1140.22 389.288C1139.72 388.472 1139.47 386.9 1139.47 384.572V374.384H1136.37V370.82H1139.47V366.536L1143.35 365.276V370.82H1147.17V374.384H1143.35V385.58C1143.35 386.972 1143.99 387.668 1145.26 387.668C1146.1 387.668 1146.83 387.512 1147.46 387.2L1147.75 390.548Z" fill="white"/>
<path d="M1160.75 374.6C1160.44 374.552 1160.15 374.516 1159.89 374.492C1159.62 374.444 1159.36 374.42 1159.1 374.42C1157.7 374.42 1156.67 375.104 1156 376.472C1155.38 377.672 1155.06 379.16 1155.06 380.936V390.692H1151.21V375.86C1151.21 374.948 1151.19 374.096 1151.14 373.304C1151.12 372.488 1151.08 371.732 1151.03 371.036H1154.92V373.448C1156.02 371.552 1157.43 370.604 1159.13 370.604C1159.66 370.604 1160.2 370.676 1160.75 370.82V374.6Z" fill="white"/>
<path d="M1176.67 390.728V388.748C1175.38 390.332 1173.67 391.124 1171.56 391.124C1169.21 391.124 1167.42 390.416 1166.2 389C1165.12 387.68 1164.58 385.904 1164.58 383.672V371.072H1168.43V382.952C1168.43 386.144 1169.59 387.74 1171.92 387.74C1173.48 387.74 1174.67 387.152 1175.49 385.976C1176.13 385.016 1176.46 383.708 1176.46 382.052V371.072H1180.27V385.76C1180.27 387.536 1180.35 389.192 1180.49 390.728H1176.67Z" fill="white"/>
<path d="M1196.71 390.728V388.82C1195.53 390.356 1193.84 391.124 1191.63 391.124C1189.23 391.124 1187.45 390.452 1186.3 389.108C1185.49 388.124 1185.08 386.924 1185.08 385.508C1185.08 380.612 1188.68 378.164 1195.88 378.164H1196.42V377.516C1196.42 375.164 1195.33 373.988 1193.14 373.988C1191.17 373.988 1189.23 374.504 1187.31 375.536V372.008C1189.13 371.072 1191.15 370.604 1193.36 370.604C1195.66 370.604 1197.34 371.144 1198.4 372.224C1199.53 373.4 1200.09 375.224 1200.09 377.696V386.084C1200.09 388.292 1200.16 389.84 1200.31 390.728H1196.71ZM1196.42 381.512H1195.66C1193.79 381.512 1192.35 381.68 1191.34 382.016C1189.73 382.544 1188.93 383.588 1188.93 385.148C1188.93 386.876 1189.93 387.74 1191.92 387.74C1194.92 387.74 1196.42 385.916 1196.42 382.268V381.512Z" fill="white"/>
<path d="M1228.21 390.728V388.748C1226.92 390.332 1225.21 391.124 1223.1 391.124C1220.75 391.124 1218.96 390.416 1217.74 389C1216.66 387.68 1216.12 385.904 1216.12 383.672V371.072H1219.97V382.952C1219.97 386.144 1221.13 387.74 1223.46 387.74C1225.02 387.74 1226.21 387.152 1227.03 385.976C1227.67 385.016 1228 383.708 1228 382.052V371.072H1231.81V385.76C1231.81 387.536 1231.89 389.192 1232.03 390.728H1228.21Z" fill="white"/>
<path d="M1264.27 390.548H1260.52V377.876C1260.52 375.332 1259.39 374.06 1257.14 374.06C1256.03 374.06 1255.12 374.516 1254.4 375.428C1253.54 376.484 1253.11 377.972 1253.11 379.892V390.548H1249.33V377.876C1249.33 375.332 1248.2 374.06 1245.94 374.06C1244.81 374.06 1243.91 374.504 1243.24 375.392C1242.4 376.448 1241.98 377.948 1241.98 379.892V390.548H1238.17V376.04C1238.17 374.936 1238.15 373.976 1238.13 373.16C1238.11 372.344 1238.07 371.66 1238.02 371.108H1241.77V372.872C1242.85 371.408 1244.54 370.676 1246.84 370.676C1247.83 370.676 1248.81 370.964 1249.79 371.54C1250.8 372.164 1251.51 372.944 1251.92 373.88C1253.26 371.744 1255.27 370.676 1257.93 370.676C1259.97 370.676 1261.55 371.288 1262.68 372.512C1263.74 373.64 1264.27 375.188 1264.27 377.156V390.548Z" fill="white"/>
<path d="M1307.05 390.548H1303.31V377.876C1303.31 375.332 1302.18 374.06 1299.92 374.06C1298.82 374.06 1297.91 374.516 1297.19 375.428C1296.32 376.484 1295.89 377.972 1295.89 379.892V390.548H1292.11V377.876C1292.11 375.332 1290.98 374.06 1288.73 374.06C1287.6 374.06 1286.7 374.504 1286.03 375.392C1285.19 376.448 1284.77 377.948 1284.77 379.892V390.548H1280.95V376.04C1280.95 374.936 1280.94 373.976 1280.91 373.16C1280.89 372.344 1280.85 371.66 1280.81 371.108H1284.55V372.872C1285.63 371.408 1287.32 370.676 1289.63 370.676C1290.61 370.676 1291.59 370.964 1292.58 371.54C1293.59 372.164 1294.29 372.944 1294.7 373.88C1296.05 371.744 1298.05 370.676 1300.71 370.676C1302.75 370.676 1304.34 371.288 1305.47 372.512C1306.52 373.64 1307.05 375.188 1307.05 377.156V390.548Z" fill="white"/>
<path d="M1325.53 390.728V388.748C1324.23 390.332 1322.53 391.124 1320.41 391.124C1318.06 391.124 1316.27 390.416 1315.05 389C1313.97 387.68 1313.43 385.904 1313.43 383.672V371.072H1317.28V382.952C1317.28 386.144 1318.45 387.74 1320.77 387.74C1322.33 387.74 1323.52 387.152 1324.34 385.976C1324.99 385.016 1325.31 383.708 1325.31 382.052V371.072H1329.13V385.76C1329.13 387.536 1329.2 389.192 1329.34 390.728H1325.53Z" fill="white"/>
<path d="M1344.51 374.6C1344.2 374.552 1343.91 374.516 1343.65 374.492C1343.39 374.444 1343.12 374.42 1342.86 374.42C1341.47 374.42 1340.43 375.104 1339.76 376.472C1339.14 377.672 1338.83 379.16 1338.83 380.936V390.692H1334.97V375.86C1334.97 374.948 1334.95 374.096 1334.9 373.304C1334.88 372.488 1334.84 371.732 1334.79 371.036H1338.68V373.448C1339.79 371.552 1341.19 370.604 1342.89 370.604C1343.42 370.604 1343.96 370.676 1344.51 370.82V374.6Z" fill="white"/>
<path d="M1358.64 390.728V388.82C1357.46 390.356 1355.77 391.124 1353.56 391.124C1351.16 391.124 1349.38 390.452 1348.23 389.108C1347.42 388.124 1347.01 386.924 1347.01 385.508C1347.01 380.612 1350.61 378.164 1357.81 378.164H1358.35V377.516C1358.35 375.164 1357.26 373.988 1355.07 373.988C1353.1 373.988 1351.16 374.504 1349.24 375.536V372.008C1351.06 371.072 1353.08 370.604 1355.29 370.604C1357.59 370.604 1359.27 371.144 1360.33 372.224C1361.46 373.4 1362.02 375.224 1362.02 377.696V386.084C1362.02 388.292 1362.09 389.84 1362.24 390.728H1358.64ZM1358.35 381.512H1357.59C1355.72 381.512 1354.28 381.68 1353.27 382.016C1351.66 382.544 1350.86 383.588 1350.86 385.148C1350.86 386.876 1351.86 387.74 1353.85 387.74C1356.85 387.74 1358.35 385.916 1358.35 382.268V381.512Z" fill="white"/>
<path d="M1371.49 390.548H1367.56V361.892H1371.49V390.548Z" fill="white"/>
<path d="M1394.57 373.7C1392.94 373.7 1391.73 374.432 1390.93 375.896C1390.26 377.096 1389.93 378.728 1389.93 380.792C1389.93 385.376 1391.47 387.668 1394.57 387.668C1396.06 387.668 1397.23 386.924 1398.1 385.436C1398.79 384.164 1399.14 382.58 1399.14 380.684C1399.14 378.788 1398.79 377.204 1398.1 375.932C1397.26 374.444 1396.08 373.7 1394.57 373.7ZM1402.78 390.728H1399.14V388.928C1397.94 390.416 1396.3 391.16 1394.21 391.16C1391.59 391.16 1389.57 390.188 1388.13 388.244C1386.78 386.348 1386.11 383.864 1386.11 380.792C1386.11 377.624 1386.73 375.128 1387.98 373.304C1389.35 371.264 1391.43 370.244 1394.21 370.244C1396.13 370.244 1397.77 371.036 1399.14 372.62V361.82H1402.78V390.728Z" fill="white"/>
<path d="M1423.71 382.232H1411.58C1411.65 383.96 1412.12 385.304 1412.98 386.264C1413.87 387.296 1415.09 387.812 1416.65 387.812C1418.81 387.812 1420.72 387.344 1422.38 386.408V390.044C1420.46 390.764 1418.51 391.124 1416.55 391.124C1413.45 391.124 1411.15 390.14 1409.63 388.172C1408.31 386.42 1407.65 383.972 1407.65 380.828C1407.65 377.804 1408.39 375.344 1409.85 373.448C1411.31 371.552 1413.28 370.604 1415.75 370.604C1418.51 370.604 1420.58 371.588 1421.95 373.556C1423.12 375.236 1423.71 377.456 1423.71 380.216V382.232ZM1419.79 378.812C1419.79 377.468 1419.44 376.34 1418.74 375.428C1418.02 374.468 1417.07 373.988 1415.9 373.988C1414.7 373.988 1413.68 374.48 1412.84 375.464C1412 376.448 1411.58 377.564 1411.58 378.812H1419.79Z" fill="white"/>
<path d="M1442.19 395.84H1438.41V371H1442.19L1442.08 373.196C1442.17 373.076 1442.29 372.932 1442.44 372.764C1442.58 372.572 1442.75 372.38 1442.94 372.188C1444 371.132 1445.43 370.604 1447.23 370.604C1449.87 370.604 1451.89 371.492 1453.31 373.268C1454.56 374.9 1455.18 377.204 1455.18 380.18C1455.18 383.204 1454.52 385.604 1453.2 387.38C1451.81 389.276 1449.78 390.224 1447.12 390.224C1444.98 390.224 1443.34 389.444 1442.19 387.884V395.84ZM1446.79 374.096C1445.31 374.096 1444.15 374.72 1443.34 375.968C1442.57 377.096 1442.19 378.572 1442.19 380.396C1442.19 382.172 1442.56 383.648 1443.3 384.824C1444.14 386.096 1445.28 386.732 1446.72 386.732C1449.84 386.732 1451.4 384.584 1451.4 380.288C1451.4 376.16 1449.87 374.096 1446.79 374.096Z" fill="white"/>
<path d="M1475.25 382.232H1463.12C1463.19 383.96 1463.66 385.304 1464.52 386.264C1465.41 387.296 1466.63 387.812 1468.19 387.812C1470.35 387.812 1472.26 387.344 1473.92 386.408V390.044C1472 390.764 1470.05 391.124 1468.09 391.124C1464.99 391.124 1462.69 390.14 1461.17 388.172C1459.85 386.42 1459.19 383.972 1459.19 380.828C1459.19 377.804 1459.93 375.344 1461.39 373.448C1462.85 371.552 1464.82 370.604 1467.29 370.604C1470.05 370.604 1472.12 371.588 1473.49 373.556C1474.66 375.236 1475.25 377.456 1475.25 380.216V382.232ZM1471.33 378.812C1471.33 377.468 1470.98 376.34 1470.28 375.428C1469.56 374.468 1468.61 373.988 1467.44 373.988C1466.24 373.988 1465.22 374.48 1464.38 375.464C1463.54 376.448 1463.12 377.564 1463.12 378.812H1471.33Z" fill="white"/>
<path d="M1495.59 390.692H1491.84V378.632C1491.84 375.536 1490.72 373.988 1488.46 373.988C1486.92 373.988 1485.76 374.6 1484.97 375.824C1484.32 376.88 1484 378.236 1484 379.892V390.692H1480.25V376.04C1480.25 375.104 1480.23 374.228 1480.18 373.412C1480.16 372.572 1480.12 371.78 1480.07 371.036H1483.67V373.016C1484.85 371.408 1486.59 370.604 1488.89 370.604C1493.36 370.604 1495.59 373.088 1495.59 378.056V390.692Z" fill="white"/>
<path d="M1511.59 374.96C1510 374.288 1508.5 373.952 1507.09 373.952C1505.1 373.952 1504.1 374.732 1504.1 376.292C1504.1 376.988 1504.86 377.708 1506.37 378.452C1508.55 379.532 1509.96 380.324 1510.58 380.828C1512.07 382.052 1512.81 383.564 1512.81 385.364C1512.81 387.38 1512.01 388.904 1510.4 389.936C1509.13 390.728 1507.6 391.124 1505.83 391.124C1503.67 391.124 1501.8 390.8 1500.21 390.152L1500.57 386.444C1502.32 387.308 1504.04 387.74 1505.72 387.74C1506.68 387.74 1507.47 387.488 1508.1 386.984C1508.67 386.528 1508.96 385.928 1508.96 385.184C1508.96 384.224 1508.23 383.336 1506.76 382.52C1505.4 381.776 1504.38 381.212 1503.7 380.828C1503.03 380.444 1502.68 380.24 1502.66 380.216C1501.2 379.112 1500.46 377.756 1500.46 376.148C1500.46 374.18 1501.2 372.716 1502.66 371.756C1503.84 370.988 1505.26 370.604 1506.94 370.604C1508.82 370.604 1510.5 370.928 1511.98 371.576L1511.59 374.96Z" fill="white"/>
<path d="M1527.42 390.728V388.82C1526.25 390.356 1524.55 391.124 1522.35 391.124C1519.95 391.124 1518.17 390.452 1517.02 389.108C1516.2 388.124 1515.79 386.924 1515.79 385.508C1515.79 380.612 1519.39 378.164 1526.59 378.164H1527.13V377.516C1527.13 375.164 1526.04 373.988 1523.86 373.988C1521.89 373.988 1519.95 374.504 1518.03 375.536V372.008C1519.85 371.072 1521.86 370.604 1524.07 370.604C1526.38 370.604 1528.06 371.144 1529.11 372.224C1530.24 373.4 1530.81 375.224 1530.81 377.696V386.084C1530.81 388.292 1530.88 389.84 1531.02 390.728H1527.42ZM1527.13 381.512H1526.38C1524.51 381.512 1523.06 381.68 1522.06 382.016C1520.45 382.544 1519.65 383.588 1519.65 385.148C1519.65 386.876 1520.64 387.74 1522.63 387.74C1525.63 387.74 1527.13 385.916 1527.13 382.268V381.512Z" fill="white"/>
<path d="M1563.06 390.548H1559.31V377.876C1559.31 375.332 1558.19 374.06 1555.93 374.06C1554.83 374.06 1553.91 374.516 1553.19 375.428C1552.33 376.484 1551.9 377.972 1551.9 379.892V390.548H1548.12V377.876C1548.12 375.332 1546.99 374.06 1544.73 374.06C1543.61 374.06 1542.71 374.504 1542.03 375.392C1541.19 376.448 1540.77 377.948 1540.77 379.892V390.548H1536.96V376.04C1536.96 374.936 1536.95 373.976 1536.92 373.16C1536.9 372.344 1536.86 371.66 1536.81 371.108H1540.56V372.872C1541.64 371.408 1543.33 370.676 1545.63 370.676C1546.62 370.676 1547.6 370.964 1548.59 371.54C1549.59 372.164 1550.3 372.944 1550.71 373.88C1552.05 371.744 1554.06 370.676 1556.72 370.676C1558.76 370.676 1560.35 371.288 1561.47 372.512C1562.53 373.64 1563.06 375.188 1563.06 377.156V390.548Z" fill="white"/>
<path d="M1584.27 382.232H1572.14C1572.21 383.96 1572.68 385.304 1573.54 386.264C1574.43 387.296 1575.65 387.812 1577.21 387.812C1579.37 387.812 1581.28 387.344 1582.94 386.408V390.044C1581.02 390.764 1579.07 391.124 1577.11 391.124C1574.01 391.124 1571.71 390.14 1570.19 388.172C1568.87 386.42 1568.21 383.972 1568.21 380.828C1568.21 377.804 1568.95 375.344 1570.41 373.448C1571.87 371.552 1573.84 370.604 1576.31 370.604C1579.07 370.604 1581.14 371.588 1582.51 373.556C1583.68 375.236 1584.27 377.456 1584.27 380.216V382.232ZM1580.35 378.812C1580.35 377.468 1580 376.34 1579.3 375.428C1578.58 374.468 1577.63 373.988 1576.46 373.988C1575.26 373.988 1574.24 374.48 1573.4 375.464C1572.56 376.448 1572.14 377.564 1572.14 378.812H1580.35Z" fill="white"/>
<path d="M1604.61 390.692H1600.86V378.632C1600.86 375.536 1599.73 373.988 1597.48 373.988C1595.94 373.988 1594.78 374.6 1593.99 375.824C1593.34 376.88 1593.01 378.236 1593.01 379.892V390.692H1589.27V376.04C1589.27 375.104 1589.25 374.228 1589.2 373.412C1589.17 372.572 1589.14 371.78 1589.09 371.036H1592.69V373.016C1593.87 371.408 1595.61 370.604 1597.91 370.604C1602.37 370.604 1604.61 373.088 1604.61 378.056V390.692Z" fill="white"/>
<path d="M1620.21 390.548C1619.3 390.932 1618.27 391.124 1617.11 391.124C1614.83 391.124 1613.36 390.512 1612.69 389.288C1612.18 388.472 1611.93 386.9 1611.93 384.572V374.384H1608.83V370.82H1611.93V366.536L1615.82 365.276V370.82H1619.63V374.384H1615.82V385.58C1615.82 386.972 1616.45 387.668 1617.73 387.668C1618.57 387.668 1619.3 387.512 1619.92 387.2L1620.21 390.548Z" fill="white"/>
<path d="M1631.85 373.988C1630.22 373.988 1628.92 374.636 1627.96 375.932C1627.05 377.204 1626.59 378.848 1626.59 380.864C1626.59 382.88 1627.05 384.524 1627.96 385.796C1628.92 387.092 1630.22 387.74 1631.85 387.74C1633.48 387.74 1634.76 387.092 1635.7 385.796C1636.64 384.548 1637.1 382.904 1637.1 380.864C1637.1 378.848 1636.64 377.204 1635.7 375.932C1634.76 374.636 1633.48 373.988 1631.85 373.988ZM1631.85 370.604C1634.82 370.604 1637.14 371.672 1638.8 373.808C1640.28 375.704 1641.03 378.056 1641.03 380.864C1641.03 383.672 1640.28 386.024 1638.8 387.92C1637.14 390.056 1634.82 391.124 1631.85 391.124C1628.85 391.124 1626.52 390.056 1624.86 387.92C1623.4 386.072 1622.67 383.72 1622.67 380.864C1622.67 378.008 1623.4 375.656 1624.86 373.808C1626.52 371.672 1628.85 370.604 1631.85 370.604Z" fill="white"/>
<path d="M1655.52 374.96C1653.93 374.288 1652.43 373.952 1651.02 373.952C1649.02 373.952 1648.03 374.732 1648.03 376.292C1648.03 376.988 1648.78 377.708 1650.3 378.452C1652.48 379.532 1653.88 380.324 1654.51 380.828C1656 382.052 1656.74 383.564 1656.74 385.364C1656.74 387.38 1655.94 388.904 1654.33 389.936C1653.06 390.728 1651.53 391.124 1649.76 391.124C1647.6 391.124 1645.72 390.8 1644.14 390.152L1644.5 386.444C1646.25 387.308 1647.97 387.74 1649.65 387.74C1650.61 387.74 1651.4 387.488 1652.02 386.984C1652.6 386.528 1652.89 385.928 1652.89 385.184C1652.89 384.224 1652.16 383.336 1650.69 382.52C1649.32 381.776 1648.3 381.212 1647.63 380.828C1646.96 380.444 1646.61 380.24 1646.59 380.216C1645.12 379.112 1644.39 377.756 1644.39 376.148C1644.39 374.18 1645.12 372.716 1646.59 371.756C1647.76 370.988 1649.19 370.604 1650.87 370.604C1652.74 370.604 1654.42 370.928 1655.91 371.576L1655.52 374.96Z" fill="white"/>
<path d="M1687.16 369.704V389H1684.57L1684.1 386.444H1683.96C1683.55 387.116 1683.02 387.668 1682.38 388.1C1681.73 388.532 1681.02 388.844 1680.25 389.036C1679.48 389.252 1678.68 389.36 1677.84 389.36C1676.3 389.36 1675.01 389.12 1673.95 388.64C1672.92 388.136 1672.14 387.368 1671.61 386.336C1671.08 385.304 1670.82 383.972 1670.82 382.34V369.704H1674.02V382.124C1674.02 383.66 1674.37 384.812 1675.07 385.58C1675.76 386.348 1676.84 386.732 1678.31 386.732C1679.75 386.732 1680.88 386.468 1681.69 385.94C1682.53 385.388 1683.12 384.596 1683.46 383.564C1683.82 382.508 1684 381.236 1684 379.748V369.704H1687.16ZM1684.43 361.784C1684.21 362.12 1683.9 362.528 1683.49 363.008C1683.08 363.488 1682.63 363.992 1682.12 364.52C1681.64 365.024 1681.15 365.516 1680.65 365.996C1680.17 366.452 1679.71 366.848 1679.28 367.184H1677.19V366.752C1677.55 366.296 1677.94 365.756 1678.34 365.132C1678.78 364.508 1679.2 363.872 1679.6 363.224C1680.01 362.552 1680.35 361.952 1680.61 361.424H1684.43V361.784Z" fill="white"/>
<path d="M1708.95 390.692H1705.21V378.632C1705.21 375.536 1704.08 373.988 1701.82 373.988C1700.29 373.988 1699.12 374.6 1698.33 375.824C1697.68 376.88 1697.36 378.236 1697.36 379.892V390.692H1693.61V376.04C1693.61 375.104 1693.59 374.228 1693.54 373.412C1693.52 372.572 1693.48 371.78 1693.43 371.036H1697.03V373.016C1698.21 371.408 1699.95 370.604 1702.25 370.604C1706.72 370.604 1708.95 373.088 1708.95 378.056V390.692Z" fill="white"/>
<path d="M1718.9 390.692H1715.05V370.532H1718.9V390.692ZM1718.9 367.076H1715.05V362.576H1718.9V367.076Z" fill="white"/>
<path d="M1737.79 390.368C1736.45 390.8 1734.73 391.016 1732.65 391.016C1729.69 391.016 1727.37 389.984 1725.66 387.92C1724.13 386.072 1723.36 383.708 1723.36 380.828C1723.36 377.876 1724.25 375.44 1726.02 373.52C1727.82 371.624 1730.09 370.676 1732.83 370.676C1734.65 370.676 1736.31 370.928 1737.79 371.432L1737.51 374.924C1736.09 374.348 1734.61 374.06 1733.08 374.06C1731.21 374.06 1729.74 374.684 1728.69 375.932C1727.65 377.156 1727.14 378.788 1727.14 380.828C1727.14 382.748 1727.67 384.368 1728.72 385.688C1729.75 386.984 1731.12 387.632 1732.83 387.632C1734.39 387.632 1735.95 387.344 1737.51 386.768L1737.79 390.368Z" fill="white"/>
<path d="M1749.9 373.988C1748.27 373.988 1746.98 374.636 1746.02 375.932C1745.1 377.204 1744.65 378.848 1744.65 380.864C1744.65 382.88 1745.1 384.524 1746.02 385.796C1746.98 387.092 1748.27 387.74 1749.9 387.74C1751.54 387.74 1752.82 387.092 1753.76 385.796C1754.69 384.548 1755.16 382.904 1755.16 380.864C1755.16 378.848 1754.69 377.204 1753.76 375.932C1752.82 374.636 1751.54 373.988 1749.9 373.988ZM1749.9 370.604C1752.88 370.604 1755.2 371.672 1756.85 373.808C1758.34 375.704 1759.08 378.056 1759.08 380.864C1759.08 383.672 1758.34 386.024 1756.85 387.92C1755.2 390.056 1752.88 391.124 1749.9 391.124C1746.9 391.124 1744.58 390.056 1742.92 387.92C1741.46 386.072 1740.72 383.72 1740.72 380.864C1740.72 378.008 1741.46 375.656 1742.92 373.808C1744.58 371.672 1746.9 370.604 1749.9 370.604Z" fill="white"/>
<path d="M1773.57 374.96C1771.99 374.288 1770.49 373.952 1769.07 373.952C1767.08 373.952 1766.08 374.732 1766.08 376.292C1766.08 376.988 1766.84 377.708 1768.35 378.452C1770.54 379.532 1771.94 380.324 1772.56 380.828C1774.05 382.052 1774.8 383.564 1774.8 385.364C1774.8 387.38 1773.99 388.904 1772.38 389.936C1771.11 390.728 1769.59 391.124 1767.81 391.124C1765.65 391.124 1763.78 390.8 1762.2 390.152L1762.56 386.444C1764.31 387.308 1766.02 387.74 1767.7 387.74C1768.66 387.74 1769.46 387.488 1770.08 386.984C1770.66 386.528 1770.94 385.928 1770.94 385.184C1770.94 384.224 1770.21 383.336 1768.75 382.52C1767.38 381.776 1766.36 381.212 1765.69 380.828C1765.02 380.444 1764.67 380.24 1764.64 380.216C1763.18 379.112 1762.45 377.756 1762.45 376.148C1762.45 374.18 1763.18 372.716 1764.64 371.756C1765.82 370.988 1767.25 370.604 1768.93 370.604C1770.8 370.604 1772.48 370.928 1773.97 371.576L1773.57 374.96Z" fill="white"/>
<path d="M1783.83 392.96H1779.36V388.676H1783.83V392.96Z" fill="white"/>
<path d="M601.861 419.108L597.505 408.02L593.113 419.108H601.861ZM610.213 429.692H606.037L603.301 422.816H591.637L588.865 429.692H584.725L595.669 402.836H599.593L610.213 429.692Z" fill="white"/>
<path d="M621.447 413.204C618.423 413.204 616.911 415.256 616.911 419.36C616.911 423.536 618.447 425.624 621.519 425.624C622.983 425.624 624.135 425.012 624.975 423.788C625.719 422.684 626.091 421.232 626.091 419.432C626.091 417.632 625.731 416.168 625.011 415.04C624.171 413.816 622.983 413.204 621.447 413.204ZM629.907 434.84H626.091V426.776C624.939 428.336 623.295 429.116 621.159 429.116C618.519 429.116 616.503 428.18 615.111 426.308C613.767 424.532 613.095 422.168 613.095 419.216C613.095 416.336 613.731 414.056 615.003 412.376C616.371 410.6 618.399 409.712 621.087 409.712C623.151 409.712 624.843 410.516 626.163 412.124L626.091 410.108H629.907V434.84Z" fill="white"/>
<path d="M647.959 429.728V427.748C646.663 429.332 644.959 430.124 642.847 430.124C640.495 430.124 638.707 429.416 637.483 428C636.403 426.68 635.863 424.904 635.863 422.672V410.072H639.715V421.952C639.715 425.144 640.879 426.74 643.207 426.74C644.767 426.74 645.955 426.152 646.771 424.976C647.419 424.016 647.743 422.708 647.743 421.052V410.072H651.559V424.76C651.559 426.536 651.631 428.192 651.775 429.728H647.959Z" fill="white"/>
<path d="M661.367 429.692H657.515V409.532H661.367V429.692ZM661.367 406.076H657.515V401.576H661.367V406.076Z" fill="white"/>
<path d="M672.339 427.352L669.207 434.84H666.075L667.983 427.352H672.339Z" fill="white"/>
<path d="M701.247 429.368C699.903 429.8 698.187 430.016 696.099 430.016C693.147 430.016 690.819 428.984 689.115 426.92C687.579 425.072 686.811 422.708 686.811 419.828C686.811 416.876 687.699 414.44 689.475 412.52C691.275 410.624 693.543 409.676 696.279 409.676C698.103 409.676 699.759 409.928 701.247 410.432L700.959 413.924C699.543 413.348 698.067 413.06 696.531 413.06C694.659 413.06 693.195 413.684 692.139 414.932C691.107 416.156 690.591 417.788 690.591 419.828C690.591 421.748 691.119 423.368 692.175 424.688C693.207 425.984 694.575 426.632 696.279 426.632C697.839 426.632 699.399 426.344 700.959 425.768L701.247 429.368Z" fill="white"/>
<path d="M715.769 429.728V427.82C714.593 429.356 712.901 430.124 710.693 430.124C708.293 430.124 706.517 429.452 705.365 428.108C704.549 427.124 704.141 425.924 704.141 424.508C704.141 419.612 707.741 417.164 714.941 417.164H715.481V416.516C715.481 414.164 714.389 412.988 712.205 412.988C710.237 412.988 708.293 413.504 706.373 414.536V411.008C708.197 410.072 710.213 409.604 712.421 409.604C714.725 409.604 716.405 410.144 717.461 411.224C718.589 412.4 719.153 414.224 719.153 416.696V425.084C719.153 427.292 719.225 428.84 719.369 429.728H715.769ZM715.481 420.512H714.725C712.853 420.512 711.413 420.68 710.405 421.016C708.797 421.544 707.993 422.588 707.993 424.148C707.993 425.876 708.989 426.74 710.981 426.74C713.981 426.74 715.481 424.916 715.481 421.268V420.512Z" fill="white"/>
<path d="M732.614 412.7C730.982 412.7 729.77 413.432 728.978 414.896C728.306 416.096 727.97 417.728 727.97 419.792C727.97 424.376 729.518 426.668 732.614 426.668C734.102 426.668 735.278 425.924 736.142 424.436C736.838 423.164 737.186 421.58 737.186 419.684C737.186 417.788 736.838 416.204 736.142 414.932C735.302 413.444 734.126 412.7 732.614 412.7ZM740.822 429.728H737.186V427.928C735.986 429.416 734.342 430.16 732.254 430.16C729.638 430.16 727.61 429.188 726.17 427.244C724.826 425.348 724.154 422.864 724.154 419.792C724.154 416.624 724.778 414.128 726.026 412.304C727.394 410.264 729.47 409.244 732.254 409.244C734.174 409.244 735.818 410.036 737.186 411.62V400.82H740.822V429.728Z" fill="white"/>
<path d="M757.218 429.728V427.82C756.042 429.356 754.35 430.124 752.142 430.124C749.742 430.124 747.966 429.452 746.814 428.108C745.998 427.124 745.59 425.924 745.59 424.508C745.59 419.612 749.19 417.164 756.39 417.164H756.93V416.516C756.93 414.164 755.838 412.988 753.654 412.988C751.686 412.988 749.742 413.504 747.822 414.536V411.008C749.646 410.072 751.662 409.604 753.87 409.604C756.174 409.604 757.854 410.144 758.91 411.224C760.038 412.4 760.602 414.224 760.602 416.696V425.084C760.602 427.292 760.674 428.84 760.818 429.728H757.218ZM756.93 420.512H756.174C754.302 420.512 752.862 420.68 751.854 421.016C750.246 421.544 749.442 422.588 749.442 424.148C749.442 425.876 750.438 426.74 752.43 426.74C755.43 426.74 756.93 424.916 756.93 421.268V420.512Z" fill="white"/>
<path d="M780.229 434.84H776.449V410H780.229L780.121 412.196C780.217 412.076 780.337 411.932 780.481 411.764C780.625 411.572 780.793 411.38 780.985 411.188C782.041 410.132 783.469 409.604 785.269 409.604C787.909 409.604 789.937 410.492 791.353 412.268C792.601 413.9 793.225 416.204 793.225 419.18C793.225 422.204 792.565 424.604 791.245 426.38C789.853 428.276 787.825 429.224 785.161 429.224C783.025 429.224 781.381 428.444 780.229 426.884V434.84ZM784.837 413.096C783.349 413.096 782.197 413.72 781.381 414.968C780.613 416.096 780.229 417.572 780.229 419.396C780.229 421.172 780.601 422.648 781.345 423.824C782.185 425.096 783.325 425.732 784.765 425.732C787.885 425.732 789.445 423.584 789.445 419.288C789.445 415.16 787.909 413.096 784.837 413.096Z" fill="white"/>
<path d="M808.757 429.728V427.82C807.581 429.356 805.889 430.124 803.681 430.124C801.281 430.124 799.505 429.452 798.353 428.108C797.537 427.124 797.129 425.924 797.129 424.508C797.129 419.612 800.729 417.164 807.929 417.164H808.469V416.516C808.469 414.164 807.377 412.988 805.193 412.988C803.225 412.988 801.281 413.504 799.361 414.536V411.008C801.185 410.072 803.201 409.604 805.409 409.604C807.713 409.604 809.393 410.144 810.449 411.224C811.577 412.4 812.141 414.224 812.141 416.696V425.084C812.141 427.292 812.213 428.84 812.357 429.728H808.757ZM808.469 420.512H807.713C805.841 420.512 804.401 420.68 803.393 421.016C801.785 421.544 800.981 422.588 800.981 424.148C800.981 425.876 801.977 426.74 803.969 426.74C806.969 426.74 808.469 424.916 808.469 421.268V420.512Z" fill="white"/>
<path d="M821.606 429.548H817.682V400.892H821.606V429.548Z" fill="white"/>
<path d="M837.374 429.728V427.82C836.198 429.356 834.506 430.124 832.298 430.124C829.898 430.124 828.122 429.452 826.97 428.108C826.154 427.124 825.746 425.924 825.746 424.508C825.746 419.612 829.346 417.164 836.546 417.164H837.086V416.516C837.086 414.164 835.994 412.988 833.81 412.988C831.842 412.988 829.898 413.504 827.978 414.536V411.008C829.802 410.072 831.818 409.604 834.026 409.604C836.33 409.604 838.01 410.144 839.066 411.224C840.194 412.4 840.758 414.224 840.758 416.696V425.084C840.758 427.292 840.83 428.84 840.974 429.728H837.374ZM837.086 420.512H836.33C834.458 420.512 833.018 420.68 832.01 421.016C830.402 421.544 829.598 422.588 829.598 424.148C829.598 425.876 830.594 426.74 832.586 426.74C835.586 426.74 837.086 424.916 837.086 421.268V420.512Z" fill="white"/>
<path d="M861.311 410.108L854.471 429.548H850.907L844.319 410.108H848.243L852.779 424.256L857.459 410.108H861.311Z" fill="white"/>
<path d="M874.264 413.6C873.952 413.552 873.664 413.516 873.4 413.492C873.136 413.444 872.872 413.42 872.608 413.42C871.216 413.42 870.184 414.104 869.512 415.472C868.888 416.672 868.576 418.16 868.576 419.936V429.692H864.724V414.86C864.724 413.948 864.7 413.096 864.652 412.304C864.628 411.488 864.592 410.732 864.544 410.036H868.432V412.448C869.536 410.552 870.94 409.604 872.644 409.604C873.172 409.604 873.712 409.676 874.264 409.82V413.6Z" fill="white"/>
<path d="M888.386 429.728V427.82C887.21 429.356 885.518 430.124 883.31 430.124C880.91 430.124 879.134 429.452 877.982 428.108C877.166 427.124 876.758 425.924 876.758 424.508C876.758 419.612 880.358 417.164 887.558 417.164H888.098V416.516C888.098 414.164 887.006 412.988 884.822 412.988C882.854 412.988 880.91 413.504 878.99 414.536V411.008C880.814 410.072 882.83 409.604 885.038 409.604C887.342 409.604 889.022 410.144 890.078 411.224C891.206 412.4 891.77 414.224 891.77 416.696V425.084C891.77 427.292 891.842 428.84 891.986 429.728H888.386ZM888.098 420.512H887.342C885.47 420.512 884.03 420.68 883.022 421.016C881.414 421.544 880.61 422.588 880.61 424.148C880.61 425.876 881.606 426.74 883.598 426.74C886.598 426.74 888.098 424.916 888.098 421.268V420.512Z" fill="white"/>
<path d="M915.141 408.344C916.797 408.344 918.213 408.704 919.389 409.424C920.589 410.144 921.501 411.164 922.125 412.484C922.773 413.78 923.097 415.304 923.097 417.056V418.964H909.885C909.933 421.148 910.485 422.816 911.541 423.968C912.621 425.096 914.121 425.66 916.041 425.66C917.265 425.66 918.345 425.552 919.281 425.336C920.241 425.096 921.225 424.76 922.233 424.328V427.1C921.249 427.532 920.277 427.844 919.317 428.036C918.357 428.252 917.217 428.36 915.897 428.36C914.073 428.36 912.453 427.988 911.037 427.244C909.645 426.5 908.553 425.396 907.761 423.932C906.993 422.444 906.609 420.632 906.609 418.496C906.609 416.384 906.957 414.572 907.653 413.06C908.373 411.548 909.369 410.384 910.641 409.568C911.937 408.752 913.437 408.344 915.141 408.344ZM915.105 410.936C913.593 410.936 912.393 411.428 911.505 412.412C910.641 413.372 910.125 414.716 909.957 416.444H919.785C919.785 415.34 919.617 414.38 919.281 413.564C918.945 412.748 918.429 412.112 917.733 411.656C917.061 411.176 916.185 410.936 915.105 410.936ZM920.217 400.784C920.001 401.12 919.689 401.528 919.281 402.008C918.873 402.488 918.417 402.992 917.913 403.52C917.433 404.024 916.941 404.516 916.437 404.996C915.957 405.452 915.501 405.848 915.069 406.184H912.981V405.752C913.341 405.296 913.725 404.756 914.133 404.132C914.565 403.508 914.985 402.872 915.393 402.224C915.801 401.552 916.137 400.952 916.401 400.424H920.217V400.784Z" fill="white"/>
<path d="M947.927 413.96C946.343 413.288 944.843 412.952 943.427 412.952C941.435 412.952 940.439 413.732 940.439 415.292C940.439 415.988 941.195 416.708 942.707 417.452C944.891 418.532 946.295 419.324 946.919 419.828C948.407 421.052 949.151 422.564 949.151 424.364C949.151 426.38 948.347 427.904 946.739 428.936C945.467 429.728 943.943 430.124 942.167 430.124C940.007 430.124 938.135 429.8 936.551 429.152L936.911 425.444C938.663 426.308 940.379 426.74 942.059 426.74C943.019 426.74 943.811 426.488 944.435 425.984C945.011 425.528 945.299 424.928 945.299 424.184C945.299 423.224 944.567 422.336 943.103 421.52C941.735 420.776 940.715 420.212 940.043 419.828C939.371 419.444 939.023 419.24 938.999 419.216C937.535 418.112 936.803 416.756 936.803 415.148C936.803 413.18 937.535 411.716 938.999 410.756C940.175 409.988 941.603 409.604 943.283 409.604C945.155 409.604 946.835 409.928 948.323 410.576L947.927 413.96Z" fill="white"/>
<path d="M965.561 429.728V427.748C964.265 429.332 962.561 430.124 960.449 430.124C958.097 430.124 956.309 429.416 955.085 428C954.005 426.68 953.465 424.904 953.465 422.672V410.072H957.317V421.952C957.317 425.144 958.481 426.74 960.809 426.74C962.369 426.74 963.557 426.152 964.373 424.976C965.021 424.016 965.345 422.708 965.345 421.052V410.072H969.161V424.76C969.161 426.536 969.233 428.192 969.377 429.728H965.561Z" fill="white"/>
<path d="M985.593 429.728V427.82C984.417 429.356 982.725 430.124 980.517 430.124C978.117 430.124 976.341 429.452 975.189 428.108C974.373 427.124 973.965 425.924 973.965 424.508C973.965 419.612 977.565 417.164 984.765 417.164H985.305V416.516C985.305 414.164 984.213 412.988 982.029 412.988C980.061 412.988 978.117 413.504 976.197 414.536V411.008C978.021 410.072 980.037 409.604 982.245 409.604C984.549 409.604 986.229 410.144 987.285 411.224C988.413 412.4 988.977 414.224 988.977 416.696V425.084C988.977 427.292 989.049 428.84 989.193 429.728H985.593ZM985.305 420.512H984.549C982.677 420.512 981.237 420.68 980.229 421.016C978.621 421.544 977.817 422.588 977.817 424.148C977.817 425.876 978.813 426.74 980.805 426.74C983.805 426.74 985.305 424.916 985.305 421.268V420.512Z" fill="white"/>
<path d="M1000.21 427.352L997.074 434.84H993.942L995.85 427.352H1000.21Z" fill="white"/>
<path d="M1029.11 429.368C1027.77 429.8 1026.05 430.016 1023.97 430.016C1021.01 430.016 1018.69 428.984 1016.98 426.92C1015.45 425.072 1014.68 422.708 1014.68 419.828C1014.68 416.876 1015.57 414.44 1017.34 412.52C1019.14 410.624 1021.41 409.676 1024.15 409.676C1025.97 409.676 1027.63 409.928 1029.11 410.432L1028.83 413.924C1027.41 413.348 1025.93 413.06 1024.4 413.06C1022.53 413.06 1021.06 413.684 1020.01 414.932C1018.97 416.156 1018.46 417.788 1018.46 419.828C1018.46 421.748 1018.99 423.368 1020.04 424.688C1021.07 425.984 1022.44 426.632 1024.15 426.632C1025.71 426.632 1027.27 426.344 1028.83 425.768L1029.11 429.368Z" fill="white"/>
<path d="M1043.64 429.728V427.82C1042.46 429.356 1040.77 430.124 1038.56 430.124C1036.16 430.124 1034.38 429.452 1033.23 428.108C1032.42 427.124 1032.01 425.924 1032.01 424.508C1032.01 419.612 1035.61 417.164 1042.81 417.164H1043.35V416.516C1043.35 414.164 1042.26 412.988 1040.07 412.988C1038.1 412.988 1036.16 413.504 1034.24 414.536V411.008C1036.06 410.072 1038.08 409.604 1040.29 409.604C1042.59 409.604 1044.27 410.144 1045.33 411.224C1046.46 412.4 1047.02 414.224 1047.02 416.696V425.084C1047.02 427.292 1047.09 428.84 1047.24 429.728H1043.64ZM1043.35 420.512H1042.59C1040.72 420.512 1039.28 420.68 1038.27 421.016C1036.66 421.544 1035.86 422.588 1035.86 424.148C1035.86 425.876 1036.86 426.74 1038.85 426.74C1041.85 426.74 1043.35 424.916 1043.35 421.268V420.512Z" fill="white"/>
<path d="M1060.48 412.7C1058.85 412.7 1057.64 413.432 1056.85 414.896C1056.17 416.096 1055.84 417.728 1055.84 419.792C1055.84 424.376 1057.39 426.668 1060.48 426.668C1061.97 426.668 1063.15 425.924 1064.01 424.436C1064.71 423.164 1065.05 421.58 1065.05 419.684C1065.05 417.788 1064.71 416.204 1064.01 414.932C1063.17 413.444 1061.99 412.7 1060.48 412.7ZM1068.69 429.728H1065.05V427.928C1063.85 429.416 1062.21 430.16 1060.12 430.16C1057.51 430.16 1055.48 429.188 1054.04 427.244C1052.69 425.348 1052.02 422.864 1052.02 419.792C1052.02 416.624 1052.65 414.128 1053.89 412.304C1055.26 410.264 1057.34 409.244 1060.12 409.244C1062.04 409.244 1063.69 410.036 1065.05 411.62V400.82H1068.69V429.728Z" fill="white"/>
<path d="M1085.09 429.728V427.82C1083.91 429.356 1082.22 430.124 1080.01 430.124C1077.61 430.124 1075.83 429.452 1074.68 428.108C1073.87 427.124 1073.46 425.924 1073.46 424.508C1073.46 419.612 1077.06 417.164 1084.26 417.164H1084.8V416.516C1084.8 414.164 1083.71 412.988 1081.52 412.988C1079.55 412.988 1077.61 413.504 1075.69 414.536V411.008C1077.51 410.072 1079.53 409.604 1081.74 409.604C1084.04 409.604 1085.72 410.144 1086.78 411.224C1087.91 412.4 1088.47 414.224 1088.47 416.696V425.084C1088.47 427.292 1088.54 428.84 1088.69 429.728H1085.09ZM1084.8 420.512H1084.04C1082.17 420.512 1080.73 420.68 1079.72 421.016C1078.11 421.544 1077.31 422.588 1077.31 424.148C1077.31 425.876 1078.31 426.74 1080.3 426.74C1083.3 426.74 1084.8 424.916 1084.8 421.268V420.512Z" fill="white"/>
<path d="M1113.64 404.024C1113.04 403.76 1112.43 403.628 1111.8 403.628C1110.84 403.628 1110.21 403.916 1109.9 404.492C1109.66 404.876 1109.54 405.572 1109.54 406.58C1109.54 406.724 1109.54 406.976 1109.54 407.336C1109.56 407.696 1109.57 407.972 1109.57 408.164V409.568H1113.17V413.06H1109.57V429.692H1105.76V413.06H1102.41V409.568H1105.76V408.344C1105.76 405.584 1106.06 403.676 1106.66 402.62C1107.47 401.108 1109.12 400.352 1111.59 400.352C1112.62 400.352 1113.38 400.496 1113.86 400.784L1113.64 404.024Z" fill="white"/>
<path d="M1126.83 413.6C1126.51 413.552 1126.23 413.516 1125.96 413.492C1125.7 413.444 1125.43 413.42 1125.17 413.42C1123.78 413.42 1122.75 414.104 1122.07 415.472C1121.45 416.672 1121.14 418.16 1121.14 419.936V429.692H1117.29V414.86C1117.29 413.948 1117.26 413.096 1117.21 412.304C1117.19 411.488 1117.15 410.732 1117.11 410.036H1120.99V412.448C1122.1 410.552 1123.5 409.604 1125.21 409.604C1125.73 409.604 1126.27 409.676 1126.83 409.82V413.6Z" fill="white"/>
<path d="M1140.95 429.728V427.82C1139.77 429.356 1138.08 430.124 1135.87 430.124C1133.47 430.124 1131.7 429.452 1130.54 428.108C1129.73 427.124 1129.32 425.924 1129.32 424.508C1129.32 419.612 1132.92 417.164 1140.12 417.164H1140.66V416.516C1140.66 414.164 1139.57 412.988 1137.38 412.988C1135.42 412.988 1133.47 413.504 1131.55 414.536V411.008C1133.38 410.072 1135.39 409.604 1137.6 409.604C1139.9 409.604 1141.58 410.144 1142.64 411.224C1143.77 412.4 1144.33 414.224 1144.33 416.696V425.084C1144.33 427.292 1144.4 428.84 1144.55 429.728H1140.95ZM1140.66 420.512H1139.9C1138.03 420.512 1136.59 420.68 1135.58 421.016C1133.98 421.544 1133.17 422.588 1133.17 424.148C1133.17 425.876 1134.17 426.74 1136.16 426.74C1139.16 426.74 1140.66 424.916 1140.66 421.268V420.512Z" fill="white"/>
<path d="M1159.99 413.96C1158.41 413.288 1156.91 412.952 1155.49 412.952C1153.5 412.952 1152.5 413.732 1152.5 415.292C1152.5 415.988 1153.26 416.708 1154.77 417.452C1156.95 418.532 1158.36 419.324 1158.98 419.828C1160.47 421.052 1161.21 422.564 1161.21 424.364C1161.21 426.38 1160.41 427.904 1158.8 428.936C1157.53 429.728 1156.01 430.124 1154.23 430.124C1152.07 430.124 1150.2 429.8 1148.61 429.152L1148.97 425.444C1150.73 426.308 1152.44 426.74 1154.12 426.74C1155.08 426.74 1155.87 426.488 1156.5 425.984C1157.07 425.528 1157.36 424.928 1157.36 424.184C1157.36 423.224 1156.63 422.336 1155.17 421.52C1153.8 420.776 1152.78 420.212 1152.11 419.828C1151.43 419.444 1151.09 419.24 1151.06 419.216C1149.6 418.112 1148.87 416.756 1148.87 415.148C1148.87 413.18 1149.6 411.716 1151.06 410.756C1152.24 409.988 1153.67 409.604 1155.35 409.604C1157.22 409.604 1158.9 409.928 1160.39 410.576L1159.99 413.96Z" fill="white"/>
<path d="M1180.36 421.232H1168.23C1168.3 422.96 1168.77 424.304 1169.63 425.264C1170.52 426.296 1171.74 426.812 1173.3 426.812C1175.46 426.812 1177.37 426.344 1179.03 425.408V429.044C1177.11 429.764 1175.16 430.124 1173.2 430.124C1170.1 430.124 1167.8 429.14 1166.28 427.172C1164.96 425.42 1164.3 422.972 1164.3 419.828C1164.3 416.804 1165.04 414.344 1166.5 412.448C1167.96 410.552 1169.93 409.604 1172.4 409.604C1175.16 409.604 1177.23 410.588 1178.6 412.556C1179.77 414.236 1180.36 416.456 1180.36 419.216V421.232ZM1176.44 417.812C1176.44 416.468 1176.09 415.34 1175.39 414.428C1174.67 413.468 1173.72 412.988 1172.55 412.988C1171.35 412.988 1170.33 413.48 1169.49 414.464C1168.65 415.448 1168.23 416.564 1168.23 417.812H1176.44Z" fill="white"/>
<path d="M1204.56 429.548C1203.65 429.932 1202.61 430.124 1201.46 430.124C1199.18 430.124 1197.71 429.512 1197.03 428.288C1196.53 427.472 1196.28 425.9 1196.28 423.572V413.384H1193.18V409.82H1196.28V405.536L1200.17 404.276V409.82H1203.98V413.384H1200.17V424.58C1200.17 425.972 1200.8 426.668 1202.07 426.668C1202.91 426.668 1203.65 426.512 1204.27 426.2L1204.56 429.548Z" fill="white"/>
<path d="M1223.14 421.232H1211.01C1211.08 422.96 1211.55 424.304 1212.42 425.264C1213.3 426.296 1214.53 426.812 1216.09 426.812C1218.25 426.812 1220.16 426.344 1221.81 425.408V429.044C1219.89 429.764 1217.95 430.124 1215.98 430.124C1212.88 430.124 1210.58 429.14 1209.07 427.172C1207.75 425.42 1207.09 422.972 1207.09 419.828C1207.09 416.804 1207.82 414.344 1209.28 412.448C1210.75 410.552 1212.72 409.604 1215.19 409.604C1217.95 409.604 1220.01 410.588 1221.38 412.556C1222.56 414.236 1223.14 416.456 1223.14 419.216V421.232ZM1219.22 417.812C1219.22 416.468 1218.87 415.34 1218.18 414.428C1217.46 413.468 1216.51 412.988 1215.33 412.988C1214.13 412.988 1213.11 413.48 1212.27 414.464C1211.43 415.448 1211.01 416.564 1211.01 417.812H1219.22Z" fill="white"/>
<path d="M1254.25 429.548H1250.5V416.876C1250.5 414.332 1249.37 413.06 1247.12 413.06C1246.01 413.06 1245.1 413.516 1244.38 414.428C1243.52 415.484 1243.09 416.972 1243.09 418.892V429.548H1239.31V416.876C1239.31 414.332 1238.18 413.06 1235.92 413.06C1234.79 413.06 1233.89 413.504 1233.22 414.392C1232.38 415.448 1231.96 416.948 1231.96 418.892V429.548H1228.15V415.04C1228.15 413.936 1228.13 412.976 1228.11 412.16C1228.09 411.344 1228.05 410.66 1228 410.108H1231.75V411.872C1232.83 410.408 1234.52 409.676 1236.82 409.676C1237.81 409.676 1238.79 409.964 1239.77 410.54C1240.78 411.164 1241.49 411.944 1241.9 412.88C1243.24 410.744 1245.25 409.676 1247.91 409.676C1249.95 409.676 1251.53 410.288 1252.66 411.512C1253.72 412.64 1254.25 414.188 1254.25 416.156V429.548Z" fill="white"/>
<path d="M1285.33 410.108L1278.49 429.548H1274.93L1268.34 410.108H1272.26L1276.8 424.256L1281.48 410.108H1285.33Z" fill="white"/>
<path d="M1296.92 412.988C1295.28 412.988 1293.99 413.636 1293.03 414.932C1292.12 416.204 1291.66 417.848 1291.66 419.864C1291.66 421.88 1292.12 423.524 1293.03 424.796C1293.99 426.092 1295.28 426.74 1296.92 426.74C1298.55 426.74 1299.83 426.092 1300.77 424.796C1301.7 423.548 1302.17 421.904 1302.17 419.864C1302.17 417.848 1301.7 416.204 1300.77 414.932C1299.83 413.636 1298.55 412.988 1296.92 412.988ZM1296.92 409.604C1299.89 409.604 1302.21 410.672 1303.86 412.808C1305.35 414.704 1306.1 417.056 1306.1 419.864C1306.1 422.672 1305.35 425.024 1303.86 426.92C1302.21 429.056 1299.89 430.124 1296.92 430.124C1293.92 430.124 1291.59 429.056 1289.93 426.92C1288.47 425.072 1287.74 422.72 1287.74 419.864C1287.74 417.008 1288.47 414.656 1289.93 412.808C1291.59 410.672 1293.92 409.604 1296.92 409.604Z" fill="white"/>
<path d="M1323.9 429.548H1309.28V426.704L1319.32 413.528H1309.71V410.108H1323.9V412.988L1313.82 426.2H1323.9V429.548Z" fill="white"/>
<path d="M1333.02 431.96H1328.55V427.676H1333.02V431.96Z" fill="white"/>
</svg>
