<svg width="163" height="105" viewBox="0 0 163 105" fill="none" xmlns="http://www.w3.org/2000/svg">
<path d="M37.4924 58.3556C27.7244 67.6136 2.04849 71.2607 0.00186325 54.0539C0.00186325 51.9966 -0.463279 42.6451 13.3049 32.9196C5.76963 34.6029 1.49032 29.553 3.81603 21.2302C8.00232 9.26032 36.7481 -6.82425 40.0972 3.08833C42.5159 10.289 24.4684 21.4173 19.0727 23.6616C22.1427 22.9135 34.6085 16.648 36.8412 22.4459C39.1669 28.1503 26.8871 39.9332 20.1891 45.7311C24.5614 42.2711 31.3525 36.8472 35.5388 35.725C46.051 32.8261 50.7024 45.8246 37.4924 58.3556Z" fill="#934A1D"/>
<path d="M49.4349 52.8383C43.109 43.2062 46.9231 26.093 48.5046 20.2951C50.5512 12.4398 58.8308 13.8425 60.5983 21.2302C61.4356 24.7838 61.2495 28.6179 60.7844 32.265C58.6447 49.9393 72.8781 38.7175 72.8781 49.0041C72.8781 58.7297 55.0166 61.2546 49.4349 52.8383Z" fill="#934A1D"/>
<path d="M88.3201 57.2335C71.2028 55.3632 71.9471 35.1639 73.8076 27.7763C78.9242 11.8787 100.321 10.663 103.763 29.8336C105.623 41.1489 100.414 58.4492 88.3201 57.2335ZM87.7619 41.5229C91.0179 41.8035 92.9715 35.351 91.39 32.7326C88.8783 28.6179 85.1571 35.4445 85.0641 37.5953C84.878 39.2786 85.9944 41.2424 87.7619 41.5229Z" fill="#934A1D"/>
<path d="M102 56.5C101.237 55.2665 100.74 55.0826 101.763 52.8383C103.623 49.1912 109.457 48.6301 112.34 46.4792C114.108 45.2635 115.131 43.2062 115.131 41.0554C114.387 33.9482 104.526 32.265 108.154 23.007C110.071 17.9409 116.103 13.4737 121.5 12.9287C122.356 12.8423 123.195 12.8545 124 12.9785C124.772 13.0975 125.511 13.3192 126.202 13.6555C131.597 16.1804 128.803 21.6978 123.5 23.007C122.198 23.4746 122.209 23.7519 121 24.5C114.953 28.5211 116.837 31.414 120 34.5C134.14 48.5272 110.5 62 102 56.5Z" fill="#934A1D"/>
<path d="M47.8393 72.8471C47.0311 75.9376 48.3393 78.3471 53.0002 78.2994C66.3808 79.3548 78.842 69.3441 78.7761 56.6224C78.4555 55.3676 76.8393 53.3471 74.9772 54.9613C73.1152 56.5755 68.9858 63.557 67 65.5C61.6625 70.7224 55.8391 71.3448 55 69C54.1609 66.6552 51.8393 64.8471 51.3393 69.8471C50.3475 70.7995 48.2315 71.3471 47.8393 72.8471Z" fill="#934A1D"/>
<path d="M93.4721 102.771C92.4488 100.901 92.5419 97.3471 92.3558 95.1963C92.1697 93.513 91.9837 91.7362 91.8907 89.7724C90.4022 90.24 88.9137 90.24 87.4253 90.1465C87.1462 96.225 85.7508 105.202 79.4248 101.742C74.2152 99.3109 75.5344 55.733 84 58.819C88.5584 60.1282 88.0765 70.3213 87.8904 77.2414C88.9137 77.335 90.1231 77.4285 91.2395 77.6155C91.1464 73.0333 89.5349 65.9261 90 63.2142C91.1163 57.4163 95.6747 55.0784 98.3726 58.819C102.931 64.8975 105.287 92.7649 101.287 101.368C99.9841 104.08 95.3327 106.231 93.4721 102.771Z" fill="#7041A3"/>
<path d="M120.945 102.958C108.293 103.893 105.502 88.5567 105.595 78.8312C105.595 76.3063 105.781 65.2715 108.572 62.9337C110.805 60.9698 114.619 61.0634 116.572 63.2142C117.596 64.3364 118.061 65.9261 118.154 67.4224C118.433 70.6019 117.689 74.0619 117.503 77.2414C117.41 78.9247 116.014 90.3335 120.852 90.3335C125.41 90.3335 124.945 74.9036 125.131 71.4435C125.317 69.0121 125.503 66.4872 126.526 64.3364C128.387 60.5958 134.341 60.2217 136.201 65.6456C141.411 80.0469 136.853 101.929 120.945 102.958Z" fill="#7041A3"/>
<path d="M148.133 103.426C134.737 100.059 136.783 60.8763 153.901 60.7828C164.971 60.7828 165.622 75.6517 154.459 79.7663C161.994 79.4858 164.413 85.0967 161.994 93.139C160.134 99.5915 154.645 105.109 148.133 103.426ZM151.575 71.2565C152.877 72.2852 155.575 68.264 153.622 67.9835C152.412 67.7964 150.645 70.3213 151.575 71.2565ZM151.668 93.513C154.366 94.1676 155.947 88.5567 154.552 86.6864C153.343 85.3772 151.761 87.341 151.296 88.3697C150.738 89.6789 150.273 92.6714 151.668 93.513Z" fill="#7041A3"/>
</svg>
